<svg xmlns="http://www.w3.org/2000/svg" xmlns:xlink="http://www.w3.org/1999/xlink" viewBox="0 0 500 500" style="enable-background:new 0 0 500 500" xml:space="preserve"><style>.st2{fill-rule:evenodd;clip-rule:evenodd;fill:#fff}</style><g id="Layer_2"><path d="M39.8 317.9c-3.4.6-6.7.4-9.8-.5-3.1-.9-5.7-2.5-7.8-4.7s-3.4-4.8-3.9-7.9c-.5-3.1-.4-5.8.4-8.1s2.1-3.6 4-3.9c1.1-.2 2.2.1 3.1.8.9.7 1.5 1.6 1.6 2.7.2 1.2-.1 2.2-.9 3.2-1.2.2-2.2.8-2.9 1.8-.7.9-.9 2.1-.7 3.6.2 1.5 1.1 2.7 2.5 3.6 1.4.9 3.1 1.6 5 1.9s3.9.3 6-.1c2.1-.3 4-1 5.7-2 1.7-1 3.1-2.3 4.1-3.8 1-1.6 1.3-3.3 1-5.1-.8-4.5-3.3-7.7-7.6-9.7.8-.4 1.5-.6 2.2-.8 1.7-.3 3.4.1 5.1 1.1 1.6 1 3 2.5 4.2 4.5 1.2 2 1.9 4.2 2.4 6.7.3 2 .3 3.9 0 5.7-.4 1.8-1.1 3.5-2.1 5s-2.6 2.8-4.5 3.9c-2.1.9-4.4 1.7-7.1 2.1zM50.6 254.3l-.6 9c-.9-.1-4-.3-9.3-.8s-9.7-.9-13.2-1.1c-1.5-.1-2.9-.1-4 .1s-2 .4-2.5.8c-.6.4-1 .7-1.2 1-.2.3-.4.6-.5.9l-1.2-.1c-1.4-2.5-2-4.9-1.8-7.2.2-2.8 1.6-4.1 4.3-3.9.1 0 .5.1 1.3.3.8.2 1.4.3 1.8.4-1.5-.8-3-2.1-4.6-4s-2.3-3.8-2.1-5.7c.1-1.8.7-3.2 1.7-4 1-.8 2.1-1.2 3.3-1.1 1.2.1 2.2.6 2.9 1.4.8.9 1.1 1.9 1 3.2 0 .1 0 .2-.1.3 0 .2-.1.3-.1.4-1.8.2-2.7 1.2-2.8 2.8-.1 1.1.1 2 .5 2.8.4.8 1 1.5 1.7 2s1.7.9 2.8 1.3c1.2.3 2.3.6 3.4.7 1.1.2 2.4.3 3.9.4 3.6.3 6.4.4 8.6.5 2.1-.1 4.4-.2 6.8-.4zM58.9 195.1c1.6-.3 2.8-1.5 3.5-3.7l1.4.5c.2.9.3 2.2.3 3.7-.1 1.5-.3 2.8-.6 4-.4 1.4-1.3 2.4-2.7 3-1.4.7-2.6.9-3.6.7 1.2 1.2 2 2.8 2.2 4.6.3 1.9.2 3.6-.3 5.2-1 3.1-2.6 5.2-4.8 6.3-2.2 1.1-4.4 1.3-6.7.5-2-.6-3.5-1.8-4.6-3.6-1.1-1.7-1.7-3.7-1.8-5.9-.1-2.2.2-4.5 1-6.9.4-1.3 1-2.5 1.7-3.7-1.7-.7-3-1.1-3.9-1.4-1.2-.4-2.3-.7-3.3-.9-.9-.2-1.9-.3-2.8-.2-.9 0-1.7.3-2.3.8s-1.1 1.2-1.4 2.1c-.4 1.4-.3 2.6.4 3.6.7 1.1 1.8 1.7 3.3 1.8.5 1.4.6 2.7.2 4-.3 1-.9 1.8-1.8 2.3-.8.5-1.8.6-2.8.3-1.9-.6-3.2-2.3-3.7-4.9-.5-2.6-.3-5.4.6-8.3 1.3-3.9 3.1-6.6 5.5-8.3 2.4-1.7 5.2-2 8.4-.9.6.2 1.9.6 3.7 1.3 1.9.7 3.7 1.3 5.5 1.9 5.1 1.6 8.2 2.3 9.4 2.1zm-12.7 5.5c-.2.7-.4 1.4-.5 2.1-.1.7-.3 1.6-.3 2.6-.1 1.1 0 2 .2 2.8.2.8.5 1.6 1.1 2.3.5.7 1.3 1.2 2.2 1.5 1.4.5 2.7.4 3.8-.2 1.1-.6 1.9-1.4 2.3-2.6.6-2 .6-4-.1-6.1-2.1-.3-4.9-1.2-8.7-2.4zM47.4 143.5l4.3 3.5 3.2-5.2c.3-.5.6-1.2.9-1.9.3-.7.3-1.3 0-1.6.5.1.9.4 1.4.7 2.3 1.4 2.4 3.7.4 6.9l-1.2 1.8-1.2 1.8 12.7 7.8c.5.3 1.1.7 1.7 1 .6.3 1.2.7 1.8 1 .6.3 1.2.6 1.8.7.6.2 1.2.3 1.7.3s1.1-.1 1.6-.4c.5-.3 1-.8 1.3-1.4.7-1.1 1.2-2.4 1.6-3.9.4-1.5.4-2.5-.1-3.2 1.5.2 2.6 1.1 3.3 2.4s1 3 .7 4.8c-.2 1.9-.8 3.6-1.9 5.3-1.1 1.7-2.1 3-3.2 3.9s-2.3 1.3-3.5 1.4c-1.2.1-2.4-.1-3.6-.6-1.2-.4-2.6-1.1-4.1-2.1-1.4-.9-3.4-2.2-6-4.1-2.6-1.9-4.6-3.2-5.8-4-2.2-1.3-3.6-2-4.2-1.9-1.4.2-2.7.7-3.8 1.5l-1.5-1.3c.1-.2.2-.4.3-.7.1-.3.2-.9.3-1.6.1-.7 0-1.7-.3-2.8-.3-1.1-.8-2.4-1.5-3.7l2.9-4.4zM105.3 106.3l-.2.6c-.5 1.1-1.4 2.3-2.7 3.6l-10.6 10.2c.4.3 1 .9 1.8 1.7 2.3 2.2 4.8 3.3 7.4 3.3s4.7-.8 6.3-2.4c1.4-1.4 2.5-3.1 3.2-5.1.8-2 .9-4.4.4-7 1.2.7 2.2 1.7 2.8 2.9.6 1.2 1 2.4 1 3.7 0 1.3-.2 2.7-.6 4.1s-1 2.8-1.9 4.1c-.8 1.3-1.8 2.5-2.9 3.6-1.4 1.4-2.9 2.4-4.5 3.2-1.6.8-3.4 1.2-5.2 1.3-1.9.1-3.8-.3-5.8-1.2s-4-2.3-6-4.2c-2.5-2.5-4.3-5.2-5.5-8.1-1.2-2.9-1.5-5.8-1.1-8.6.4-2.8 1.7-5.3 3.8-7.3 1.2-1.2 2.5-2.2 3.8-2.8 1.3-.7 2.5-1.1 3.5-1.3 1.1-.2 2.2-.2 3.3 0 1.1.2 2.1.5 2.9.8.8.3 1.6.8 2.5 1.4.8.6 1.5 1.1 1.9 1.5.4.4.9.8 1.3 1.3l1.1.7zm-17.8 1.3c-.6.6-1 1.3-1.2 2.2-.2.8-.1 1.7.2 2.7.3 1 .7 1.9 1.2 2.9.5.9 1.1 2 1.9 3.1.9-.9 2.2-2.3 4-4.2 1.7-1.9 3.1-3.3 4.1-4.3-.8-.7-1.6-1.4-2.4-1.9-.9-.6-1.8-1-2.7-1.3-.9-.3-1.8-.4-2.7-.3-.9 0-1.7.4-2.4 1.1zM164.2 73c-1.1-3.3-1.5-6.5-1.2-9.7.4-3.2 1.5-6.1 3.3-8.5 1.8-2.5 4.2-4.2 7.1-5.2 2.9-1 5.6-1.4 8-1s3.9 1.5 4.6 3.3c.4 1.1.3 2.2-.2 3.2s-1.3 1.7-2.4 2.1c-1.1.4-2.2.3-3.3-.4-.4-1.1-1.2-2-2.2-2.5-1-.5-2.2-.6-3.6-.1s-2.5 1.5-3.1 3c-.7 1.5-1 3.3-1 5.2 0 2 .4 3.9 1.1 5.9.7 2 1.7 3.8 2.9 5.3s2.8 2.7 4.5 3.4c1.7.7 3.5.8 5.2.1 4.3-1.5 7-4.6 8.2-9.2.5.7.9 1.4 1.1 2.1.6 1.7.5 3.4-.2 5.2s-1.9 3.4-3.7 4.9c-1.7 1.5-3.8 2.6-6.2 3.5-1.9.7-3.8 1-5.6.9s-3.6-.5-5.3-1.2c-1.7-.8-3.2-2-4.6-3.8-1.3-1.8-2.5-3.9-3.4-6.5zM216.4 48.1c1.3-2.9 3.2-5.2 5.7-7 2.5-1.8 5.4-2.8 8.8-3.1 2-.2 3.9.1 5.8.6 1.8.6 3.5 1.5 5.1 2.8 1.5 1.3 2.8 3 3.8 5.1 1 2.1 1.6 4.6 1.8 7.3.2 3.2-.3 6.2-1.5 9.1-1.2 2.9-3.1 5.3-5.7 7.2s-5.5 3-8.8 3.2c-1.6.1-3.1 0-4.5-.2s-2.6-.7-3.6-1.2-1.9-1.2-2.8-2c-.8-.8-1.5-1.6-2.1-2.4-.5-.8-1-1.7-1.5-2.7-.4-1-.8-1.8-1-2.6-.2-.8-.4-1.5-.6-2.3-.2-.8-.3-1.3-.3-1.7 0-.3-.1-.6-.1-.9-.2-3.2.3-6.3 1.5-9.2zm8.9 13.9c.9 2.4 2 4.3 3.3 5.6s2.7 2 4.2 1.8c1.8-.1 3.3-1.4 4.4-3.9 1.1-2.4 1.5-5.4 1.2-9-.3-4.2-1.4-7.7-3.3-10.5s-4-4.1-6.3-3.9c-1 .1-1.9.5-2.6 1.3s-1.3 1.8-1.7 3c-.4 1.2-.6 2.5-.8 3.8-.1 1.3-.2 2.6-.1 3.8.3 3 .8 5.6 1.7 8zM283.4 75l-9.2-1.4c1.2-6.7 2.2-12.8 3.1-18.6l3.3-20.5c.3-2.1.3-3.9-.2-5.3s-1.1-2.3-2-2.6l.2-1.2 1-.3c.7-.2 1.6-.4 2.7-.6 1.2-.1 2.2-.1 3.3 0 2 .3 3.4 1.1 4 2.3.6 1.2.7 2.9.4 5.1-.2 1.3-.5 2.9-.9 4.6-1 4.6-2 10.3-3.1 17.1-.5 3.2-.9 5.9-1.3 8.3-.4 2.4-.7 4.7-.9 7-.3 2.1-.4 4.2-.4 6.1zM319.4 85.2l-8.7-3.1c2.4-6.3 4.6-12.2 6.5-17.6l7.2-19.5c.7-2 1-3.8.8-5.3-.2-1.5-.7-2.5-1.4-3l.4-1.1 1-.1c.7-.1 1.6-.1 2.8-.1 1.2.1 2.2.3 3.2.6 1.9.7 3.1 1.7 3.5 3s.2 3-.6 5.1c-.5 1.3-1 2.7-1.8 4.3-1.9 4.3-4 9.7-6.3 16.2-1.1 3-2 5.7-2.9 7.9-.8 2.3-1.6 4.5-2.2 6.7-.6 2.2-1.1 4.2-1.5 6zM375.4 94.7l-.6-.1c-1.2-.2-2.5-.8-4.1-1.9l-12.3-8.1c-.2.4-.7 1.1-1.3 2.1-1.7 2.8-2.2 5.4-1.6 7.9.6 2.5 1.8 4.4 3.7 5.6 1.6 1 3.5 1.7 5.7 2s4.5-.1 7-1.1c-.4 1.4-1.2 2.5-2.2 3.4-1 .9-2.1 1.5-3.4 1.8-1.3.3-2.6.4-4.1.3-1.5-.1-2.9-.4-4.4-.9-1.5-.5-2.8-1.2-4.1-2-1.7-1.1-3-2.3-4.1-3.7-1.1-1.4-1.9-3-2.4-4.8-.5-1.8-.5-3.8-.1-6s1.4-4.4 2.8-6.7c1.9-3 4.2-5.4 6.7-7.2 2.6-1.8 5.3-2.8 8.1-2.9 2.8-.2 5.5.5 8 2.1 1.5.9 2.6 1.9 3.6 3s1.6 2.2 2 3.2c.4 1 .6 2.1.7 3.2s0 2.1-.2 3c-.2.9-.4 1.8-.8 2.7-.4.9-.7 1.7-1 2.2-.3.5-.6 1-.9 1.6l-.7 1.3zm-5.1-17c-.7-.5-1.5-.7-2.4-.7-.8 0-1.7.3-2.6.8-.9.5-1.7 1.1-2.5 1.8s-1.7 1.5-2.6 2.5c1.1.7 2.7 1.6 4.9 2.9 2.2 1.3 3.9 2.3 5.1 3 .6-.9 1-1.8 1.4-2.8.4-1 .6-1.9.7-2.9.1-1 0-1.9-.3-2.7-.4-.8-.9-1.5-1.7-1.9zM394.2 114.4c2.5-2.4 5.3-4 8.4-5 3.1-1 6.1-1.1 9.1-.4 3 .7 5.5 2.2 7.6 4.4 2.1 2.3 3.5 4.6 4.1 6.9s.2 4.2-1.2 5.5c-.9.8-1.8 1.2-3 1.1-1.1-.1-2.1-.5-2.8-1.3-.8-.9-1.1-1.9-1-3.2.9-.9 1.3-1.9 1.4-3 .1-1.2-.4-2.3-1.4-3.4-1-1.1-2.4-1.6-4-1.7-1.7 0-3.4.4-5.2 1.2-1.8.8-3.4 2-5 3.4-1.5 1.4-2.8 3-3.7 4.8-.9 1.8-1.3 3.6-1.3 5.5s.7 3.5 1.9 4.8c3.1 3.3 7 4.6 11.7 3.8-.4.7-.9 1.4-1.4 1.9-1.3 1.2-2.9 1.8-4.8 1.9-1.9.1-3.9-.4-6-1.4-2.1-1-3.9-2.4-5.7-4.3-1.4-1.5-2.4-3.1-3.1-4.8-.7-1.7-1-3.5-1-5.3 0-1.9.6-3.8 1.6-5.8 1.3-1.8 2.8-3.7 4.8-5.6zM454.1 154.1l-5.1 2.1 3.1 5.4c.3.6.7 1.1 1.2 1.7.5.6 1 .8 1.4.8-.3.3-.8.7-1.3 1-2.3 1.3-4.4.3-6.3-3-.2-.3-.5-.9-1-1.9l-1-2-12.9 7.4c-.6.3-1.1.6-1.7 1-.6.4-1.2.7-1.7 1.1s-1.1.8-1.5 1.2c-.4.5-.8.9-1.1 1.4s-.4 1-.4 1.6c0 .6.2 1.2.6 1.8.7 1.2 1.5 2.3 2.6 3.3s2.1 1.5 2.9 1.5c-.9 1.2-2.2 1.7-3.7 1.7s-3.1-.6-4.6-1.7c-1.5-1.1-2.8-2.5-3.7-4.1-1-1.8-1.6-3.3-1.9-4.7-.2-1.4-.1-2.6.4-3.7s1.3-2.1 2.2-2.9c.9-.8 2.2-1.7 3.8-2.6 1.4-.8 3.6-1.9 6.5-3.3s5-2.5 6.3-3.2c2.2-1.3 3.4-2.2 3.7-2.8.5-1.3.7-2.7.4-4l1.9-.7c.1.2.3.4.5.6.2.2.7.6 1.3 1 .6.4 1.5.8 2.6 1.1s2.4.5 3.9.5l2.6 4.4zM450.8 208.4c-5.9 1.9-10.4 3.6-13.5 5.1l-2.9-8.8 21.6-6.6c1.3-.4 2.4-.9 3.4-1.5.9-.6 1.6-1.1 2-1.5.4-.4.7-.9.9-1.3s.3-.8.3-1v-.4l1.1-.4c2.3 1.9 3.7 3.9 4.4 6.1 1 3-.5 5.2-4.5 6.5-.6.2-1.7.5-3.2.9-1.5.4-2.7.7-3.5 1l-6.1 1.9zm23.9-17.5c1.2-.4 2.4-.3 3.5.3s1.9 1.5 2.3 2.7c.4 1.1.3 2.3-.3 3.4s-1.5 1.9-2.7 2.3c-1.2.4-2.3.3-3.4-.3s-1.8-1.4-2.2-2.6c-.4-1.2-.3-2.4.2-3.5.5-1.2 1.4-1.9 2.6-2.3zM471.4 262.6l-22.9-7.3-5.6-1.1.4-2.4c.2-1.6.7-2.9 1.6-3.9.9-1 1.8-1.6 2.7-1.9l17.8-7.4c1.6-.7 3-1.4 4.2-2.2s2-1.5 2.5-2.1c.5-.6.9-1.1 1.1-1.4.2-.3.3-.6.4-.7l1.2-.2c.6.7 1.2 1.6 1.7 2.7s.8 2.1.9 3.1c.2 1.8-.1 3.2-.9 4.2s-2.1 1.8-4 2.5c-2.4.7-7.7 2.9-15.9 6.7-.1 0-.6.3-1.5.8-1 .5-1.5.8-1.6.9l1.4.1c.9.1 1.7.2 2.3.4l12.3 3.4c1.8.4 3.2.6 4.2.5 1.1-.1 1.8-.5 2.1-1.3l1.2-.1c.6.6 1.2 1.3 1.7 2.3.5 1 .8 1.9.9 2.8.2 1.6-.6 2.5-2.2 2.7-1.2.1-3.2-.3-6-1.1zM458.8 317.3l-.2-.6c-.3-1.2-.2-2.7.1-4.5l2.5-14.5c-.5 0-1.3-.1-2.4-.3-3.2-.4-5.8.1-7.9 1.7s-3.3 3.4-3.7 5.6c-.3 1.9-.2 3.9.4 6 .6 2.1 1.9 4.1 3.8 5.9-1.4.1-2.8-.1-4-.6-1.2-.6-2.2-1.4-3-2.4-.8-1.1-1.4-2.3-1.9-3.7s-.8-2.9-.9-4.4c-.1-1.5 0-3.1.2-4.6.3-1.9.9-3.7 1.8-5.3.9-1.6 2-2.9 3.5-4.1 1.4-1.2 3.3-2 5.4-2.4s4.6-.5 7.3-.1c3.5.6 6.6 1.7 9.3 3.3 2.7 1.7 4.6 3.8 5.9 6.3 1.3 2.5 1.7 5.3 1.3 8.2-.3 1.7-.7 3.2-1.4 4.5-.6 1.3-1.3 2.3-2.1 3.1s-1.7 1.4-2.7 1.9c-1 .5-2 .9-2.8 1.1-.9.2-1.8.3-2.8.3h-2.4c-.6 0-1.2-.1-1.8-.2l-1.5-.2zm13.6-11.5c.1-.9 0-1.7-.3-2.4-.4-.8-1-1.4-1.8-2.1s-1.7-1.2-2.7-1.6-2.1-.9-3.4-1.4c-.2 1.3-.4 3.2-.7 5.7-.3 2.5-.5 4.5-.7 5.9 1 .1 2.1.2 3.1.1s2-.2 2.9-.5c.9-.3 1.7-.7 2.4-1.4s1-1.3 1.2-2.3zM110.3 427.4l-.4-.1c-.7-.1-1.4-.5-2.3-1.1l-7-4.6c-.1.3-.4.6-.7 1.2-1 1.6-1.3 3.1-1 4.5.3 1.4 1 2.5 2.1 3.2.9.6 2 1 3.2 1.2 1.2.2 2.6 0 4-.6-.3.8-.7 1.4-1.2 1.9-.6.5-1.2.8-1.9 1-.7.2-1.5.2-2.3.1s-1.7-.2-2.5-.5-1.6-.7-2.3-1.2c-.9-.6-1.7-1.3-2.3-2.1-.6-.8-1.1-1.7-1.3-2.8-.3-1-.3-2.2 0-3.4.3-1.2.8-2.5 1.6-3.8 1.1-1.7 2.4-3.1 3.9-4.1 1.5-1 3-1.6 4.6-1.7 1.6-.1 3.1.3 4.5 1.2.8.5 1.5 1.1 2 1.7.5.6.9 1.2 1.1 1.8.2.6.4 1.2.4 1.8 0 .6 0 1.2-.1 1.7s-.3 1-.5 1.5-.4 1-.6 1.2c-.2.3-.3.6-.5.9l-.5 1.1zm-2.8-9.8c-.4-.3-.9-.4-1.3-.4-.5 0-1 .2-1.5.5s-1 .6-1.5 1-1 .9-1.5 1.4c.6.4 1.6.9 2.8 1.7 1.3.7 2.2 1.3 2.9 1.7.3-.5.6-1 .8-1.6.2-.5.3-1.1.4-1.7.1-.6 0-1.1-.2-1.6-.2-.3-.5-.7-.9-1zM143.7 440.7l-.6-.4c.1-.6 0-1.2-.1-1.8s-.4-1-.7-1.4c-.3-.4-.6-.7-.9-1-.3-.3-.7-.5-1-.6-.7-.3-1.4-.4-2.1-.4-.7.1-1.2.4-1.5 1.1-.2.4-.2.8 0 1.3s.5 1 .9 1.5.9 1.1 1.4 1.7c.5.6 1 1.2 1.5 1.9s.9 1.3 1.3 2 .6 1.4.6 2.1c.1.8-.1 1.5-.4 2.2-.8 1.8-2.1 2.9-3.8 3.3-1.7.4-3.6.2-5.6-.7-1.5-.7-2.7-1.7-3.4-3s-.8-2.5-.3-3.6c.2-.5.6-.9 1-1.2-.3.8 0 1.8.8 3 .8 1.1 1.8 2 2.9 2.5.9.4 1.7.6 2.5.5.8 0 1.3-.4 1.7-1.1.2-.4.1-.9-.1-1.5-.3-.6-.7-1.2-1.2-1.7-.5-.6-1.1-1.3-1.6-2-.6-.7-1.1-1.5-1.5-2.2-.5-.7-.7-1.5-.8-2.4-.1-.9 0-1.8.4-2.6.8-1.7 2-2.7 3.6-3.2s3.4-.2 5.4.7c1.8.8 3.2 2 4.3 3.5-.1.4-.2.7-.3 1.2-.2.4-.5.9-.9 1.3-.5.5-.9.8-1.5 1zM176.3 443.7l-1.3 2.9 3.4 1c.4.1.7.2 1.2.2.4 0 .7 0 .9-.2 0 .3-.1.6-.2.9-.4 1.4-1.7 1.9-3.7 1.2-.2-.1-.6-.2-1.2-.4s-1-.3-1.2-.4l-2.4 8.1c-.1.3-.2.7-.3 1.1-.1.4-.2.8-.3 1.1-.1.4-.1.7-.1 1.1 0 .4 0 .7.1 1 .1.3.2.6.5.8.2.2.6.4.9.5.7.2 1.5.3 2.4.3.9 0 1.4-.2 1.8-.5.1.8-.2 1.6-.9 2.2-.6.6-1.5 1-2.6 1.1-1.1.2-2.1.1-3.2-.2-1.1-.3-2-.7-2.6-1.2-.6-.5-1.1-1-1.3-1.7s-.3-1.3-.2-2.1c.1-.7.2-1.6.5-2.6.3-.9.7-2.2 1.4-3.9.6-1.7 1.1-3 1.3-3.8.4-1.4.6-2.2.4-2.6-.3-.8-.8-1.4-1.4-1.8l.5-1c.1 0 .3.1.4.1.2 0 .5 0 .9-.1s.9-.3 1.5-.6 1.2-.8 1.8-1.3l3 .8zM200.4 469.9c.1-.7.5-1.3 1.1-1.7.6-.4 1.2-.6 2-.5.7.1 1.2.5 1.6 1.1.4.6.6 1.2.4 2-.1.7-.5 1.2-1 1.6-.6.4-1.2.6-1.9.4-.7-.1-1.3-.5-1.7-1-.4-.6-.6-1.2-.5-1.9zM273.1 474.9l-5.1.4-.1-1.5-1-14.4c0-1-.2-1.7-.6-2.1l-3.3 1.3-1.1-2.3 7-3.8.8-.1 1.3 1.8v1.2c0 .8 0 1.3.1 1.6l1.2 14.9c.3.9.5 1.9.8 3zM303.4 463.7c-.9-.1-1.7-.3-2.4-.7-.8-.4-1.4-1-2-1.8-.6-.8-1-1.8-1.2-3-.4-1.6-.4-3.2 0-4.8.4-1.5 1.1-2.9 2.3-4.1 1.2-1.2 2.6-2 4.4-2.4 1.1-.3 2.2-.3 3.2-.1s1.9.6 2.7 1.2c.8.6 1.5 1.3 2.1 2.1.6.9 1.2 1.8 1.6 2.7.4 1 .7 2 1 3 .5 2.1.7 4 .7 5.8s-.3 3.3-.7 4.5c-.4 1.2-1 2.3-1.8 3.2-.7.9-1.5 1.7-2.4 2.2s-1.7.9-2.6 1.1c-.9.2-1.9.3-2.8.3-.9 0-1.7-.2-2.4-.5s-1.2-.7-1.6-1.3c-.4-.6-.5-1.3-.4-2.1.7.7 1.6 1.1 2.8 1.3s2.1.2 3 0c1.4-.3 2.5-1.3 3.2-3 .8-1.7 1-3.9.6-6.7-1.5 1.4-3 2.2-4.6 2.6-1 .6-1.9.6-2.7.5zm-1.2-12.3c-.3 1.1-.2 2.5.2 4.3.4 1.9 1.1 3.3 2 4.2.9.9 1.9 1.2 3.1.9.5-.1 1.1-.3 1.7-.7.6-.3 1.1-.6 1.3-.8l-.2-1c-.3-1.2-.6-2.3-1-3.4s-.8-2-1.3-3c-.5-.9-1.1-1.6-1.8-2.1s-1.4-.6-2.1-.5c-1 .4-1.6 1-1.9 2.1zM341.5 440.9c-.8.3-1.6.5-2.3.6s-1.3.1-1.8 0-.9-.3-1.3-.5c-.4-.3-.7-.5-.9-.8-.2-.3-.4-.6-.5-.9-.1-.3-.2-.7-.3-1.2.5.3 1.4.2 2.7-.4l1.3-.5 10.5-4.2.8.3-.7 24.2c-.1 1.7-.7 2.8-1.9 3.3-.8.3-1.6.4-2.5.1.3-.3.5-.8.7-1.4.2-.7.3-1.8.3-3.3l.6-18.3c-.8 1.1-2.3 2.1-4.7 3zM372.2 427.5c-.2-2 .1-3.8.9-5.5.8-1.7 2.1-3.1 3.9-4.1 1.1-.6 2.2-1 3.3-1.2 1.1-.2 2.3 0 3.4.3 1.1.4 2.3 1 3.4 2s2.1 2.3 3.1 3.8c1.1 1.9 1.8 3.9 2 5.8.2 2-.1 3.8-.9 5.6-.8 1.8-2.2 3.2-4 4.3-1 .6-2.1 1-3.2 1.1-1.1.1-2.2.1-3.4-.3-1.2-.3-2.3-1-3.5-2-1.1-1-2.2-2.4-3.2-4-.9-1.9-1.6-3.8-1.8-5.8zm9.8-6.2c-1.8-1.1-3.4-1.2-4.7-.4-1 .6-1.5 1.7-1.4 3.4.1 1.7.6 3.5 1.7 5.3 1 1.7 2.1 3.1 3.3 4.2 1.2 1.1 2.3 1.9 3.4 2.3 1.1.4 2.1.3 2.9-.1 1-.6 1.5-1.9 1.5-3.7 0-1.8-.7-3.7-1.8-5.7-1.5-2.5-3.1-4.2-4.9-5.3zM250.5 86.3c-95.4 0-172.7 77.3-172.7 172.7 0 95.4 77.3 172.7 172.7 172.7S423.2 354.4 423.2 259c0-95.3-77.3-172.7-172.7-172.7zm71.3 258.9c-29.7 0-55-11.9-71.2-31.5-16.2 19.6-41.6 31.5-71.2 31.5-29 0-53.1-10.5-68.8-29.8l24.8-22.9c11.2 13.1 25.2 19.8 41.9 19.8 31.2 0 53.3-21.9 53.3-53.3s-22.1-53.3-53.3-53.3c-16.7 0-30.7 6.7-41.9 19.5l-24.8-22.9c15.7-19 39.8-29.5 68.6-29.5 29.8 0 55.3 11.9 71.5 31.6 16.2-19.7 41.6-31.6 71.5-31.6 28.8 0 52.9 10.5 68.6 29.5L366 225.2c-11.2-12.9-25.2-19.5-41.9-19.5-31.2 0-53.3 21.9-53.3 53.3s22.1 53.3 53.3 53.3c16.7 0 30.7-6.7 41.9-19.8l24.8 22.9c-15.9 19.4-40 29.8-69 29.8z"/><defs><path id="SVGID_1_" d="M556.6 0H1055v498.4H556.6z"/></defs><clipPath id="SVGID_00000020372408231981281290000016376920127961921965_"><use xlink:href="#SVGID_1_" style="overflow:visible"/></clipPath><g style="clip-path:url(#SVGID_00000020372408231981281290000016376920127961921965_)"><path class="st2" d="M458.9 446.5c-.3.3-.9-.2-.8-.7.4 0 .3.6.8.7zM464.2 446.5c-.4 0-.6-.1-.6-.4.4-.1.6 0 .6.4zM492.4 445.9c0-.5.4-.3.1-.8.4 0 .5.4.6.7-.2.1-.4.2-.7.1zM497.9 445.4c-.3-.1-1 .2-.8-.3.2 0 .4 0 .4.1.2 0 .1-.3.1-.4.2.1.3.3.3.6zM500.4 441.9c-.2-.1-.4-.2-.7-.1 0-.8.7-.3.7.1zM490.7 439.5h-.4c-.1-.3.1-.4.1-.6.3.1.4.3.3.6zM472.5 433v-.6c.3.1.6.1.6.4-.2.2-.4.2-.6.2zM472.9 432.3c0-.6.4-.4.7-.3 0 .4-.4.3-.7.3zM468.4 431.9c0-.3.6-.1.7 0-.1.5-.5.2-.7 0zM464.2 431.5h.6c.1.5-.7.5-.6 0zM496.2 430.5c-.5.1-.4-.3-.8-.3.1-.5.9-.2.8.3zM492.3 428.7v-.4c.3-.1.4.1.6.1-.1.2-.3.3-.6.3zM477.8 396.5c.3-.1.3.3.7.1.1.4-.9.6-.7-.1zM486.7 391.5v-.4c.3-.1.4.1.6.1-.1.2-.3.3-.6.3zM451.6 382.6c.1-.5-.1-.7-.1-1 .4-.1.3.4.8.3v.6c-.2.1-.4.2-.7.1zM474.3 379.3c-.3 0-.3-.4-.3-.7.4-.1.4.5.3.7zM483.8 362.4c0-.7.4-.1.8-.4 0 .3-.3.5-.8.4zM470.1 353.3c-.2.4-.8-.1-.8-.4.2.1.6.2.8.4zM493 353.3v-.4c.2 0 .7-.1.6.3-.3-.1-.4.1-.6.1zM479.4 347.4c-.7.2-1.1-.4-.7-.8.4 0 .6.4.7.8zM482.2 347.3c-.3 0-.4-.2-.7-.3.1-.3.8-.2.7.3zM489 339.1c0 .2-1.2.3-1-.1.5-.1.7.1 1 .1zM471.5 324.8c-.1-.5 0-.9.3-1.1 1.1 0 1.5.7 2.2 1.1-.2 1.1-2 .4-2.5 0zM489.9 325.2c-.5.1-.5-.2-1-.1-.1-.5.4-.4.6-.7.3.1.4.4.4.8zM496.5 324.7c.3-.1.3.3.7.1 0 .4-.9.4-.7-.1zM493.5 320.2c-.5.1-.8-.1-.8-.6.4 0 .7.2.8.6zM462.1 308.7c-.3.4-1.1 0-1.5 0 .2-.6 1 0 1.5 0zM483.1 292.5h-.4c-.1-.5.3-.5.4-.8.4.1 0 .6 0 .8zM493.2 290.4c0-.6.5-.4.7-.1 0 .4-.3.2-.7.1zM457.9 271.7c-.5 0-.6-.5-.6-1 .4.2.5.6.6 1zM477.7 237.1h-.4c-.1-.2-.2-.4-.1-.7.2.1.5.2.5.7zM490.6 207.4c-.4 0-.6-.3-1.1-.3.3-.3.2-.3.4-.8.4.1.8.2.7-.4.3.1.1.5.6.4-.2.4-.4.8-.6 1.1zM495.5 447.6h-.1c-.6-.4-.8-1.3-1.4-1.7.6-.3 2-1.3 2.5-.4-.7-.1-1.2.1-1.4.6.2.7.9.6 1.5.6-.2.5-1 .3-1.3.7.1.1.2.1.2.2zM495.4 444.8c-.4 0 .2-.2 0-.6-.1.4-.5.1-.6.3-.1-.3-.6-.1-.6-.6.6-.1.8.8 1 0 .3 0 .1.5.4.6 0 .2-.2.1-.2.3zM466.9 438.4c.1.5-.7.3-.8.1 0-.1.3-.1.8-.1zM470.9 436.7c.5.5-.2.1-.1.6-.4 0-.5-.4-.6-.7-.3-.5.5.7.7.1zM494.8 433.4c.2-.3.2-.7.7-.6l-.3.6c.2 0 .4 0 .4-.1.4.3-.6.3-.8.1z"/></g><g style="clip-path:url(#SVGID_00000020372408231981281290000016376920127961921965_)"><path class="st2" d="M454.6 316h-.6c0-.2-.2-.2-.4-.1.1-.4.1-.3 0-.7.7-.1.8.4 1 .8zM433.4 316h-1c-.2-.2-.1-.6-.1-1 .6.1.7.7 1.1 1zM385.9 316h-1c.2-.2.7-.4 1-.1v.1zM475.5 315.5v-.6c.5-.1.5.7 0 .6zM450.6 315c-.1-.3-.7-.1-.7-.6.5.1.4-.3.8-.3.2.5-.2.5-.1.9zM292.3 314.9c-.3.3-.9-.2-.8-.7.4 0 .4.6.8.7zM297.6 314.9c-.4 0-.6-.1-.6-.4.4-.1.7 0 .6.4zM431 314.5c.1-.3.6-.4.8-.1-.1.2-.6.3-.8.1zM325.9 314.3c0-.5.4-.3.1-.8.4 0 .5.4.6.7-.2.1-.4.2-.7.1zM474.7 313.8c0-.7.6 0 1-.1-.1.5-.8.4-1 .1zM456.3 314.1c-.4 0-.3-.5-.3-.8.4-.1.4.6.3.8zM473 313.8c.1-.4.6-.2.8-.1-.1.4-.4 0-.8.1zM424.3 313.1c.6-.2.2.7.7.6-.2.5-.8-.1-.7-.6zM461 313.8c-.1-.1-.2-.3-.1-.6.2-.2.5.1 1 0 0 .5-.5.4-.9.6zM331.3 313.8c-.3-.1-1 .2-.8-.3.2 0 .4 0 .4.1.2 0 .1-.3.1-.4.3 0 .4.2.3.6zM457.2 313.3c0 .2-.3.1-.4.1-.1-.2-.2-.4-.1-.7.3.1.3.5.5.6zM338.5 313.2h-.4c-.2-.3-.4-.6-.4-1 .2-.1.4-.2.7-.1.3.4-.1.7.1 1.1zM451.9 312.4c-.6-.1-.9-.8-.7-1.3.6-.1.9.2 1.1.4 0 .5-.5.4-.4.9zM440.1 311.5c.3.1.5.2.6.6-.4.3-.9-.2-.6-.6zM426.6 311.9c0-.4.9-.6 1.1-.3.1.5-1 .5-1.1.3zM464.4 311.4c-.2 0-.2-.2-.4-.3.1-.5.4 0 1-.1.2.5-.6 0-.6.4zM466.2 311.1c0 .2-1 .3-.8-.1.4-.1.5.1.8.1zM459.5 311.2c-.2-.3-.2-.7-.3-1 .1-.1.3-.2.6-.1.2.3-.7 1.2.4.8 0 .4-.4.4-.7.3zM419.2 311.1c-.1-.6.4-.6.8-.6 0 .5-.3.7-.8.6zM420.7 310.7c.1-.3.9-.7.8 0-.2.3-.4 0-.8 0zM481.8 310.7c-.2-.1-.5-.3-.4-.7.4 0 .4.3.4.7zM357.2 310.4c.1-.3.7-.1 1-.1-.3.2-.8.4-1 .1zM333.9 310.3c-.2-.1-.4-.2-.7-.1-.1-.8.6-.3.7.1zM420.6 310.1c-.5.1-.2-.8.1-.7.2.4-.1.4-.1.7zM410.2 310c.2-.5.8 0 1-.3.4.4-.8.4-1 .3zM397 309.6h-.6c.1-.3-.3-.3-.1-.7.2 0 .4 0 .4-.1.3 0 .4.4.3.8zM479.1 309.1c.2-.2 1.2-.7 1.1 0-.2.1-.7.2-1.1 0zM399.3 309.3c0-.4.2-.5.6-.4 0 .3-.3.4-.6.4zM375.5 309.1c-.3-.3-.9-.7-.4-1.1.3 0 .2.4.6.3-.2.4 0 .5-.2.8zM481.5 309c-.1-.5.3-.6.7-.6 0 .4-.2.6-.7.6zM402.6 308.9c0 .3-.6.1-.7 0 .1-.5.5-.2.7 0zM449.7 308.9v-.4c.2 0 .7-.1.6.3-.2 0-.4.1-.6.1zM433.1 308.9c-.4-.2.1-.8.4-.7.2.5-.4.3-.4.7zM428.6 308.9c.2-.3.2-.7.8-.6 0 .5-.3.5-.8.6zM480.8 308.7c0-.3 0-.5.1-.7.1.1.3.2.6.1 0 .4-.3.5-.7.6zM427.2 308.7c-.2-.7.8-.6 1.1-.4-.1.4-.7.3-1.1.4zM351.1 308.6c-.1-.4.1-.5.1-.8.2 0 .1.4.1.6.2-.2.3-.1.3.1-.2-.1-.2.1-.5.1zM415 308.3c-.4 0-.8.1-1-.1 0-.2 1.2-.4 1 .1zM416.7 308c-.3.4-1 0-1.3-.1.3-.4 1.1-.1 1.3.1zM475.6 307.3c.5-.2.3.4.7.3 0 .5-.6.1-.7-.3zM324.2 307.9h-.4c-.1-.3.1-.4.1-.6.2 0 .3.3.3.6zM435.8 307c0-.3.4-.3.7-.3-.1.5-.4.4-.7.3zM444.3 306.2c.6-.1 1 .1 1 .6-.4.3-.8-.3-1-.6zM434.6 306.8c-.2 0-.1-.3-.1-.4.4.1.4-.2.7-.1.1.4-.5.1-.6.5zM446.2 306.6c-.4-.4.7-.9 1-.6-.2.8-.8 0-1 .6zM430.6 306.5v-.4h.7c-.2.2-.3.4-.7.4zM413.3 305.2c.9-.1 1 .3 1.8.6-.2 1.4-1.6.1-1.8-.6zM338.1 306.3c-.2.3-1 .1-.8-.4.2.1.6.2.8.4zM425.7 306c0 .2-.9.2-.8 0-.1-.5.4.1.8 0zM379.9 305.9c-.2-.4.8-.7.7-.1-.3-.1-.3.2-.7.1zM419.6 305.8c-.5-.1-1.4.3-1.1-.6.3.2 1.2-.1 1.1.6zM496 305.3c.2-.3.4-.7.8-.4v.4c-.4.2-.3.1-.8 0zM478 305.3c-.4.1-.3-.3-.6-.3.1-.4.2-.2.6-.1v.4zM440.8 305.1c0-.3.4-.2.4-.4.5.2-.1.8-.4.4zM411.2 305.1c-.3 0-.5 0-.7-.1 0-.5.8-.4.7.1zM335.4 304.9c-.3.4-1-.1-1-.4.5-.1.7.3 1 .4zM343.7 304.1c-.2-.2-.5-.4-.4-.8.4-.1.3.4.4.8zM362.9 303.9c-.7-.7.9-.9 1.3-.6-.2.6-1 .5-1.3.6zM421.6 303.2c.2.2.6.1 1 .1-.2.5-1 .5-1-.1zM385.2 303.4c.3-.3-.2-.4-.1-.8.2.2.6.3.7.7-.1.1-.3.1-.6.1zM453.7 302.7c0-.3.2-.3.1-.6.3.1.2.6.8.4-.1.5-.3.1-.9.2zM432 302.4c.4-.1.5.3 1 .1-.2.3-1.1.6-1-.1zM404 302.8c-.3-.2-.3-.5-.6-.7.4-.5.4.4.8.3.1.2-.1.2-.2.4zM453.5 301.6c-.3.5-.3.6-.4 1.1-.3-.4-.6-.6-1.1-.7.1-.4-.2-.4-.1-.7.3 0 .3-.2.6-.1-.5.5.3.5 1 .4zM400.5 302.4c0 .3-.6.1-.8.1 0-.6.6-.3.8-.1zM412 301.6c0-.4.9.1.8-.3.4.5-.4.3-.8.3zM399.8 301.4c-.7.2-.6-.4-1.3-.3.4-.4 1.2-.2 1.3.3zM305.9 301.4v-.6c.3.1.6.1.6.4-.1.2-.3.2-.6.2zM428.6 301.1c.2-.2.5-.3.8-.3.1.7-.5.4-.8.3zM390.7 301.1h-.6c-.1-.5.8-.6.6 0zM306.3 300.7c0-.6.4-.4.7-.3 0 .3-.3.3-.7.3zM301.9 300.3c0-.3.6-.1.7 0-.2.5-.5.2-.7 0zM297.6 299.9h.6c.1.5-.7.5-.6 0zM432 300c.2-.2 1-.3 1.1-.1-.3.3-.6.2-1.1.1zM498.7 299.9c-.4 0-.3-.5-.1-.7.2 0 .2.2.4.3-.1.1-.3.2-.3.4zM464 299.7c-.3 0-.5 0-.7-.1 0-.4.7-.3.7.1zM394.2 299.7c-.4-.2-.4-.7-.4-1.3h.7c-.1.6-.6.8-.3 1.3zM400 299.6v-.4c.3-.1.4.1.6.1-.1.3-.3.3-.6.3zM456.3 299.2c-.5.3-.3-.3-.6-.7.6-.2.3.6.6.7zM481.5 299.2c.1-.3.2-.5.3-.8.1.1.2.1.4.1 0 .4-.2.6-.7.7zM415.1 298.9c0-.2.2-.4 0-.4.1-.3.7-.1 1-.1.2.6-.6.8-1 .5zM434.1 298.7c-.3.6-.5-.7-.1-.7.6-.1-.3.7.1.7zM329.6 298.9c-.5.1-.4-.3-.8-.3.1-.5.9-.2.8.3zM446.4 298.7c-.1 0-.1-.1-.3-.1v-.3h.7c.1.4-.3.2-.4.4zM445.6 298c0-.4.1-.6.4-.6.1.5 0 .7-.4.6zM422 297.3c.4-.1.4.2.7.1 0 .5-.8.5-.7-.1zM401.2 297.1c.3.1.8-.2.7.3-.2.2-.8.2-.7-.3zM394.5 297.1c-.6 0-1.1-.2-1-.8.5 0 1.1-.5 1.5.3 0 .2-.6-.1-.5.5zM342.3 296.6c-.3 1.2-1.3-.5 0 0zM325.7 297.1v-.4c.3-.1.4.1.6.1-.1.2-.3.3-.6.3zM440.3 296.5c.3-.3 1.1.3 1.4-.4.4.7-1 .8-1.4.4zM458.2 296.5c.2-.3.7-.8 1-.6.1.7-.5.6-1 .6zM351 296.5c-.5 0-.7-.2-.7-.6.4 0 .7.2.7.6zM445.7 296.1c-.2.5-.6-.4-.3-.6.6.1 0 .5.3.6zM335.1 296.1c-.3.1-.4-.1-.6-.1.1-.3.2-.5.7-.4.1.2-.1.2-.1.5zM415.8 295.2c.1-.6-.4-.5-.4-1.3.5.1.8-.3 1.1 0-.3 0-.6 1 0 1 0 .4-.3.4-.7.3zM446.3 295.1h-.8c.1-.3.9-.7.8 0zM436.2 294.5c.4 0 .7 0 .7.4-.4.2-.8.3-.7-.4zM415.1 294.3c-.5-.2-.7-.7-.8-1.3.4.3.8.6.8 1.3zM370.2 293.7c-.3-.3-.4-.8.3-.7.1.4-.5.2-.3.7zM396.7 293.4c-.4 0-.9-.5-.6-.8.5 0 .7.3.6.8zM371.2 292.9c.5.5.7-.2 1.1.1 0 .4-1.3.5-1.1-.1zM433.8 292.9c-.4 0-.9.1-.8-.4.2.1.9-.1.8.4zM438.3 292.2c.3-.4 0-1 0-1.4.3-.3 1-.1 1.5-.1-.1.2-.2.3-.4.3.6.8 1.2.3 2.1.4-.2.2-.2.5.1.6-1.1.2-2.4 1.2-3.3.2zM416.7 292.4v-.6c.4.2.6-.2 1 .1.1.7-.6.5-1 .5zM420.6 291.6c.2-.1.6.4.7 0 .4.3-.9 1-.7 0zM475.6 292v-.6c.4-.1.3.3.6.3 0 .3-.2.4-.6.3zM477.6 291.6c-.2-.2-.8 0-.7-.6.2 0 .2 0 .3.1.3-.1 0-.6.6-.4-.3.5 0 .6-.2.9zM473.4 290.7v-.6c.1.2.7 0 .6.4-.2.2-.4.3-.6.2zM438.4 290.5c-.5-.1-.2-.7 0-.8.3 0 .1.7 0 .8zM395.3 290c-.2-.1-.5-.3-.3-.6.5 0 .6.4.3.6zM497.8 289.1c0-.5.2-.7.6-.7 0 .1.2.1.3.1 0 .5-.4.5-.9.6zM464.8 289.1c-.3 0-.1-.6-.1-.8.4-.1.3.6.1.8zM493.9 288.9c-.3-.1-.8-.6-.6-.8.5 0 .6.3.6.8zM445 288.9c0-.4.1-.6.4-.6.1.4 0 .7-.4.6zM420.7 288.6c-.1.4-.5-.1-.7 0 0-.2.2-.3.6-.3 0 .2 0 .3.1.3zM466.5 288.1c.6.3.7-.4 1.3 0-.3.3-1.1.6-1.3 0zM498.4 288.1c-.4-.1-.7-.7 0-.7.1.4.1.2 0 .7zM465.5 287.8c-.5 0-.1-.2-.3-.7h.4c.2.4-.1.4-.1.7zM492.1 287.2c.3 0 .7 0 .8.1 0 .5-.8.3-.8-.1zM362.6 287.7c0-.6.7-.7 1.1-.6-.2.3-.5.6-1.1.6zM375.5 285.3c0-.8-.3-1.3-.6-1.8 2.2-1.2 3.5 2 5.8 2.1-.3.4-1 .4-1 1.1-1.1-.1-1.1 1.2-2.1.7-.7-.6-.9-1.9-2.1-2.1zM404.9 287h-.4v-.6c.3 0 .4.2.4.6zM451.6 286.4v-.6h.7c0 .4-.2.6-.7.6zM438.2 286.1c-.5.1-.3-.4-.6-.4 0-.3.5-.1.7-.1 0 .2-.2.3-.1.5zM461.7 285.7c.1-.5 1-.5 1.3-.1-.1.5-.8.1-1.3.1zM388.6 285.7c-.6 0-1.1-.5-.7-1 .1.2.3 1 .7.4.4.1 0 .5 0 .6zM442.5 284.9h-.6c0-.2 0-.2-.1-.3.2-.4.8-.4.7.3zM406.2 284.3c.1-.3.1-.8.3-1.1.1.1.2.1.4.1 0 .6-.2 1-.7 1zM345.8 283.7c0 .3-.6.1-.8.1.1-.6.4-.2.8-.1zM495.4 283.7c-.6.1-.6-.3-.6-.8.2 0 .4.2.4 0 .4 0 .1.6.2.8zM397.4 283.7c-.5 0 0-.4-.3-.4 0-.2.4-.1.6-.1.1.4-.3.3-.3.5zM452.5 283.4c-.3-.1-.5-.2-.6-.6.3-.2.5.3.6.6zM458.2 283.3c-.5.1-.3-.5-.8-.4.1-.4.8-.8 1.3-.4.1.5-.5.4-.5.8zM393.7 283.3c-.5-.1-.2-.7 0-.8.5.1 0 .5 0 .8zM359.5 283.2c-.3.4-.7-.2-1.1-.1.3-.5.8.1 1.1.1zM364 282.3c.5-.1.6.2.8.3 0 .5-.9.3-.8-.3zM383.3 282.5c0-.2.9-.3.7.1-.3.3-.4-.1-.7-.1zM399.8 281.8c-.2 0-.1-.3-.1-.4.2-.1.4-.2.7-.1 0 .3-.6.1-.6.5zM434.5 281.3c-.3 0-.7 0-.8-.1 0-.4 1-.4.8.1zM387.2 280.9c-.3 0-.5 0-.7-.1 0-.7.8-.6.7.1zM391.6 280.4c.5-.4.8 0 1.3-.4 0 .6-1 .6-1.3.4zM447.4 280.2c-.8-.4.4-.6.6-.8.5.4-.9.1-.6.8zM408.7 279.7c.2-.1 1.1-.1 1.1.4-.3.2-1.4.3-1.1-.4zM488.7 279.5c-.1.3-.9.1-.7-.3.4-.1.4.3.7.3zM384.3 279.4c-.4 0-.4-.3-.4-.6.4-.1.6.3.4.6zM356.5 279.1l-.6-.3c.3-.3-.3-.8 0-1.3.3 0 .7 0 .8.1-.6.3-.5.9-.2 1.5zM497.7 278.4c-.3-.1-.7-.1-.7-.6.2.3.7.1.7.6zM431.7 278h-.4c0-.4.3-.6.8-.6 0 .3-.5.1-.4.6zM388.2 277.8c-.4 0-.6-.4-.3-.7.3.1.3.4.3.7zM434.6 277.6c-.2.3-1.1.1-1.1-.1-.2-.6.6 0 .6-.4.4-.1-.1.7.3.6.1-.1.2-.1.2-.1zM426.1 277.7h-.4v-.6h.6c-.1.3-.2.3-.2.6zM495.3 277.4c0 .2-.3.1-.4.1v-.7c.4 0 .1.6.4.6zM414.4 277c0-.2 1-.3.8.1-.3.4-.3-.1-.8-.1zM420.3 277.1c-.6 0-.7-.4-.8-.8.6-.1.8.3.8.8zM418.8 276.7c-.6.1-.9-.2-1-.7.4-.3 1.1 0 1 .7zM445.2 276.6c-.2 0-.3-.2-.3-.6.3-.1.4.1.6.1-.1.2-.3.3-.3.5zM425.9 276.3c.3-.4.8-.2 1.1-.1.1.4-.9.3-1.1.1zM456.3 276.1c-.1-.5.2-.5.6-.6-.1.4-.3.6-.6.6zM497.4 275.7c0-.2.2-.2.3-.4.6.1 0 .9-.3.4zM395.6 275.9c-.1-.4.6-.1.7-.4.5.2-.3.5-.7.4zM366.6 275.9c-.3-.2-.8-.2-.8-.6.4 0 .7.2.8.6zM458.4 275.6c-.3.1-.4-.1-.6-.1.1-.5.4-.8.6-1.1.4.3-.4.8 0 1.2zM406.7 275.6c-.2-.1-.1-.4-.6-.3 0-.7.9-.4.6.3zM480 275c-.3-.2-.2 0-.6 0-.4-.7.6-.6.6 0zM386.4 274.9c-.4 0-.7-.4-.4-.7.3 0 .3.3.4.7zM482.2 274.6c-.1-.3.4-.5 0-.6.5-.6 1 .9 0 .6zM375.5 274.5c-.3-.2-.6-.5-.6-1 .6 0 .7.4.6 1zM408.8 273.6c-.4 0-.6-.2-.6-.7.5 0 .7.3.6.7zM352.4 273.3c.1-.4.4-.2.7-.1 0 .4-.5.3-.7.1zM484.5 272.9c0-.4.2-.5.6-.4 0 .4-.3.5-.6.4zM442.4 272.8c.1-.3.7-.1 1-.1-.1.3-.8.3-1 .1zM490.4 272.6c-.5-.2-.8-.6-.8-1.3.5.2.6.8.8 1.3zM398.1 272.1c.1-.2.6-.2.8-.3.1.4-.6.5-.8.3zM495.8 271.9c-.2 0-.2-.4 0-.4 0-.2-.3-.1-.4-.1.1-.5.9-.3.8-1 .3.1.3.4.7.3-.4.1-.6.7-1.1 1.2zM494.4 271.9v-.4c.2 0 .7-.1.6.3-.1.1-.3.1-.6.1zM425.1 270.3c.4 0 .8-.1 1 .1 0 .4-1.2.4-1-.1zM355.1 270c-.4.1-.6-.1-.6-.6.2.2.7 0 .6.6zM444.3 269.6h-.4c0-.4.1-.8.6-.8.1.3-.2.4-.2.8zM380.9 269.4c-.4-.3.2-.6.1-1 .4.2-.1.8-.1 1zM438.3 269.1h-.3c0-.1-.1-.1-.1-.1v-.3c.1 0 .1-.1.1-.1h.3c0 .1.1.1.1.1v.3c-.1 0-.1 0-.1.1zM432.8 269.1c-.2 0-.3-.2-.3-.6.8.1.8-.1.8-.4.6-.1.1.6.1.8-.1.2-.6-.1-.6.2zM456.1 268.6c.1-.1.1-.2.1-.4.3.1.7.2.7.6-.2.2-.5-.1-.8-.2zM373.7 268.1c.4-.4 1.3.2 1 .6-.2.2-1-.1-1-.6zM496 268.7c-.6.1-.2-.7 0-.7.4.1-.1.5 0 .7zM404.6 268.7h-.7c0-.3.3-.4.4-.6.3.1.3.3.3.6zM364.6 268.7c-.5.1-.7-.2-1.1-.1.1-.6 1.2-.6 1.1.1zM474.8 268.3c-.1-.6.6-.1.8-.1.1.3-.7.4-.8.1zM390.1 268c-.1-.3.8-.5.7 0-.3 0-.4.3-.7 0zM418.5 268c-.4 0-.5-.4-.6-.7.3.2.6.3.6.7zM345.1 267.9h-.7c-.1-.4.2-.4.3-.7.1.2.5.2.4.7zM449.1 267.7c-.2 0-.3-.2-.3-.6.5 0 .4-.2.8 0 .2.6-.4.3-.5.6zM429.2 267.2h-.4c-.1-.2.1-.3.3-.3.1-.5-.4-.4-.4-.8.2.1.5.1.7.3 0 .4-.2.4-.2.8zM497 267c-.4 0-.8.1-1-.1-.1-.4.1-.6.6-.6 0 .1-.1.1-.1.3-.1.4.7-.1.5.4zM443.8 266.9c-.6-.1-.1-.9.3-.4-.1.1-.3.2-.3.4zM411.6 266c.2-.4.6.5 1 0 .6.6-1.2 1-1 0zM477.6 265.8c-.1.3-.9.1-.7-.3.4-.1.4.2.7.3zM386.9 265.8c-.1-.6.4-.4.7-.6.1.5-.3.6-.7.6zM471.4 265.6c-.2-.8.8-.6.8-.1-.1.1-.4.1-.8.1zM396.6 265.6c.1-.3.4-.5.8-.6.1.6-.5.5-.8.6zM475.9 265.5c-.5.1-.7-.2-1-.3.1-.5 1.2-.4 1 .3zM311.3 264.9c.3-.1.3.3.7.1 0 .4-1 .5-.7-.1zM500.2 265.2c-.4 0-.4-.3-.4-.6.5-.1.6.4.4.6zM413.4 264.6c.4 0 .8 0 .7.4-.3.2-.7.3-.7-.4zM364.7 265.1c-.3-.2-.3-1.3.3-1.1-.2.5-.1.6-.3 1.1zM390.4 264.6c-.2-.1-.1-.4-.6-.3.2-.5 1.1-.1.6.3zM356.2 264.2c-.3 0-.3-.2-.6-.1 0-.2.1-.2.1-.4h.3c0 .2.2.3.2.5zM483.9 263.7c.4.1.4-.2.7-.1.1.4-.7.8-.7.1zM345.5 264.1h-.6c-.1-.6.7-.6.6 0zM499.5 263.9c-.2-.1-.4-.2-.7-.1.2-.5.5-.8.7-1.3.2.4.4 1.2 0 1.4zM405.2 263.2c.2-.1.8.2.8-.1.5.3-1 1-.8.1zM367.3 263.4c-.6-.2 0-.5 0-.8.3 0 .1.7 0 .8zM474.5 263c-.1-.5.6-.4.4-1h.7c.2.8-.6.8-1.1 1zM439 263c0-.2 0-.4-.1-.4 0-.3.5-.1.7-.1-.1.3-.2.4-.6.5zM450.4 262.7c-.7.1-.9-.4-.8-1 .5.1.6.5.8 1zM435.8 262.5c-.1.3-.7.1-.6-.3.2-.2.7-.1.7-.4.7.4-.7.5-.1.7zM402.4 262.7c-.4 0-.9.1-.8-.4 0 .3.9-.2.8.4zM444.2 262.3c-.2-.4.8-.7.7-.1-.2 0-.4.1-.7.1zM354.6 262.3c-.3.1-.3-.3-.7-.1 0-.5.9-.5.7.1zM478.9 261.6c.3 0 .4-.3.7 0-.1.3-.8.6-.7 0zM498.7 261.7h-.4c.2-.2.1-.6.6-.6-.1.3-.3.3-.2.6zM460.2 261.7c-.4.2-.2-.9.1-.8.1.3.1.6-.1.8zM447.1 261.3h-.4c-.2-.3.4-.5 0-.6.2-.4.6.2.4.6zM379.6 261c-.1.5-1 0-1.4 0 .5-.3 1.1-.1 1.4 0zM445 260.8c.2-.3.5-.2.8-.1 0 .5-.5.2-.8.1zM359.8 261v-.6c.4-.1.4.2.8.1-.1.4-.3.5-.8.5zM436.3 260.8c-.1-.5-.5-.8-.6-1.3.1-.1.4-.1.4-.3.2.4.5.6 1 .7-.1.5-.1 1.1-.8.9zM439.1 260.7c.2-.4 0-.3 0-.8.2 0 .2 0 .3-.1.3.1.4.4.4.7-.2 0-.3.2-.7.2zM395.2 260.7c-.5 0-.9 0-.8-.6.5.3.6.3.8-.3.4.2 0 .7 0 .9zM493.7 260.6c-.2-.1-.7.2-.7-.1-.1-.6.9-.3.7.1zM427.5 260.4c.3-.5 0-.3-.3-.4.2-.6.7 0 1.1 0-.1.6-.3.5-.8.4zM388.6 259.9c-.5.1-.3-.4-.6-.4.4-.5.4.4.8 0 .2.3-.2.1-.2.4zM320.1 259.9v-.4c.3-.1.4.1.6.1-.1.2-.3.3-.6.3zM466.1 259.2c0-.4.3-.4.6-.4-.1.3-.4.6-.6.4zM433.2 259.3c.3-.4.7-.6 1.1-.8-.1.4-.4.8-1.1.8zM485.7 259h-.6c-.1-.5.9-.6.6 0zM447.1 258.7c-.3.4-1.4 0-.8-.4.2.3.5.4.8.4zM371.8 258v-.6c.2-.1.4-.2.7-.1 0 .5-.2.8-.7.7zM483.4 257.9c-.3.1-.4-.1-.6-.1.3-.1.1-.7.7-.6.1.3-.3.3-.1.7zM434.4 257.9c-.1-.3.9-.7.8-.1-.3 0-.4.2-.8.1zM432.8 257.8h-.4c-.1-.5.3-.6.7-.6 0 .3-.4.2-.3.6zM491.5 257.3c-.4-.5.5-.7 1-.4-.1.4-.8.1-1 .4zM408 257.3c.1-.1.2-.3.1-.6.6 0 .5.8-.1.6zM437.9 257.1c-.3.2-.5-.4-.6 0-.2 0-.1-.4-.1-.6.3.2.2 0 .6 0-.1.2.1.3.1.6zM499.5 256.6c-.4.2-.4-.9 0-.7v.7zM485 256.5c.3-.1.6-.3.8-.4 0 .1.1.1.1.1v.3c-.2.1-.6.3-.9 0zM445.3 255.5c.5-.1.5.2 1 .1.1.6-1.2.7-1-.1zM440.1 255.9c-.4.1-.4-.4-.7-.4.3-.4.8 0 .7.4zM412 255.9c-.5-.1.3-1.1.4-1.5.4.5-.4.9-.4 1.5zM491.5 255.7c0-.4.6-.3.7-.6.2 0 .1.3.3.3-.2.3-.6.3-1 .3zM441.5 255.2c.4.1.6.1 1 0 .1.4-1.2.8-1 0zM430.2 255.5h-.4c0-.4 0-.8.4-.7v.7zM432.7 255.4c-.4 0-.8-.1-.8-.6.2.3.9 0 .8.6zM433.2 253c-.4-.1-.7-.7-.4-1 .5 0 .4.6.4 1zM415.8 252.3c.4 0 .6.1.6.4-.2.3-.6 0-.6-.4zM496.8 252.6c0-.5.5-.4.8-.3.1.3-.4.3-.8.3zM490.5 252.6c.1-.6.3-.2.8-.4 0 .3-.5.3-.8.4zM431.6 252.3c-.3 0-.3-.2-.6-.1.1-.1.1-.2.1-.4h.4c.1.1.1.3.1.5zM475.2 251.6c.3 0 .4 0 .4.3.3 0 .3-.2.6-.1-.1.5-1 .5-1-.2zM457.1 252.1c.3-.6 1-.3 1.5-.3-.3.3-1.1.2-1.5.3zM398.1 252.1c0-.3.1-.7.6-.6.1.5-.1.7-.6.6zM482 251.7c-.1.3-.7.1-.8 0 0-.3.7-.1.8 0zM489.1 251.2c.2 0 .1.3.1.4.3 0 .3-.2.6-.1 0 .6-1.3.1-.7-.3zM458.8 251.7c0-.7.5-.2.8-.4 0 .3-.5.3-.8.4zM490.2 251.6c0-.3-.2-.3-.1-.6.5 0 .4.2.8 0 .2.6-.4.5-.7.6zM380 251.4c-.4 0-.3-.7-.1-.8.2.2.3.7.1.8zM285 251c.1-.5-.1-.7-.1-1 .4-.1.3.4.8.3v.6c-.2.1-.4.2-.7.1zM447.3 250.2c0-.2.9-.3.7.1-.3.3-.5 0-.7-.1zM432.4 249.9c.2-.3.4.1.7.1 0 .5-.8.3-.7-.1zM433.7 250.2c0-.3 0-.7.1-.8.3.2 0 .9.7.7.4.2-.6.1-.8.1zM454.9 250c-.5.1-.3-.5-.6-.6.1-.2.6.3.6.6zM416.5 249.5c.4.4.9 0 1.3-.1 0 .6-1.3 1.1-1.3.1zM447.8 248.9h-.6c0-.3.1-.7.6-.6v.6zM429.2 248.4c.3 0 .4.2.8.1 0 .4-.8.3-.8-.1zM424.8 248.5c-.5 0-.7-.2-.7-.7.3.2.6.4.7.7zM418.5 248.5c-.4.1-.5-.3-1-.1.1-.6 1-.5 1 .1zM362.8 248.2c0-.2.2-.2.3-.4.5.1 0 .9-.3.4zM487.8 248.2c0-.3 0-.7.1-.8.2.2.3.4.7.3v.4c-.3.2-.3-.1-.8.1zM412 247.8c0 .3-.5.1-.7.1-.2-.3.4-.5 0-.6.2-.4.6.3.3.4.2.1.3.1.4.1zM489.3 247.2c.3.1 1.1-.3 1 .3-.3.2-1.1.2-1-.3zM307.7 247.7c-.3 0-.3-.4-.3-.7.5-.1.5.5.3.7zM490.4 247.2c.1-.3.6-.3 1.1-.3-.2.7-.7.6-1.1.3zM454.9 247.4c-.3.1-.4-.1-.6-.1 0-.3.2-.3.1-.6.5-.1.5.3.5.7zM498.9 247.1c-.6-.1-.2-.3-.4-.7.4 0 .4.3.4.7zM492.2 245.7c.1-.5-.3-.7-.1-1.3.3.5.7.7 1 1.1-.2.2-.6.2-.9.2zM452.2 245c-.3.4-.9-.2-.7-.7h.6c0 .1-.2.1-.3.1-.1.4.2.5.4.6zM495.7 244.6c-.2-.2-.6-.1-.6-.6h.6v.6zM491.1 244.4h-1c-.7-.5-.3-1.9.6-2 .3.4.1.8.8 1-.6.4-.4.6-.4 1zM413.6 243.6c.3.1.8-.2.7.3-.2.2-.7.1-.7-.3zM454.6 243.4v-.4c.2 0 .7-.1.6.3-.3 0-.4.2-.6.1zM405.3 243.4c0-.5.8-.8.8-.1-.1.2-.4.2-.8.1zM452.9 243.2c0-.4.4-.5.7-.6-.1.4-.4.5-.7.6zM456.4 237.5c.4.2.9-.2 1.4-.1.7 1.4-1.3 1-1.4.1zM496.7 237.4c-.5.1-.7-.1-1-.1-.1-.5.2-.7.6-.7.1.4-.3.3-.3.6.3.3.6-.6.7.2zM411.9 237c0 .2-.4.1-.6.1 0-.3-.2-.3-.1-.6h.6c0 .3-.1.5.1.5zM454.3 237c-.4 0-.3-.5-.3-.8.5-.2.2.5.3.8zM345.1 236.6c-.4-.3-1.2 0-1-.8.5.1 1 .2 1 .8zM422.7 235.9h.8c-.3.3 0 .3.4.3-.1.4-1.2.3-1.2-.3zM485.2 236c-.1-.5.6-.1.6-.6.4.3-.1.8-.6.6zM439 235.9c.3-.2.5-.4.8-.4 0 .5-.3.5-.8.4zM499.9 234.9c.4 0 1 .1 1-.3.5.3-1.1 1.1-1 .3zM475.9 235.2c-.3 0-.3-.2-.6-.1.1-.6-.6-1.5.4-1.4.2.8.2.3.4 1.3-.1-.2-.2 0-.2.2zM458.2 235c.1-.3-.3-.3-.1-.7.5-.1.2.5.4.6.1-.1.2-.1.4-.1 0 .2-.3.2-.7.2zM496.6 234.7c-.4-.1-.2-.2-.1-.6h.4c0 .5-.3.4-.3.6zM445.7 234.5c0-.6.3-.8.8-.7 0 .4-.1.8-.8.7zM407.1 234.5c-.2-.5.9-.7.8-.1-.1.1-.4.1-.8.1zM495.4 234c0-.3.4-.3.7-.3 0 .6-.4.4-.7.3zM389.9 234.2c-.4.1-.4-.2-.7-.3.1-.3.4-.4.7-.4.1.3-.2.3-.4.3-.1.3.6-.1.4.4zM385.7 234.2c-.3 0-.7 0-.8-.1-.1-.3 1-.4.8.1zM462.9 232.9c-.3 0-.7-.1-.6-.6.4 0 .6.2.6.6zM455.8 232.5c-.4-.1-.5-.4-.6-.8.7-.2.5.5.6.8zM445 232.2h-.6v-.6c.4.1.6.3.6.6zM435.3 232.1c-.3 0-.1-.6 0-.7.3 0 .3.2.6.1.2.5-.5.3-.6.6zM491.1 231.1c.2.1.8 0 .7.4-.2.2-.7 0-.7-.4zM448.5 231.4c.2-.7-.5-.4-.4-1 .4.1.3-.3.4-.4.2.1.4.2.7.1.3.6 0 1.3-.7 1.3zM457.8 231.1v-.4c.2-.1.3.1.3.3.1-.1.2-.1.4-.1.2.4-.4.1-.7.2zM419.1 230.7c0 .3-.5 0-.6 0 .1-.1.2-.3 0-.3 0-.2.3-.1.3-.3.5 0 0 .6.3.6zM317.3 230.8c0-.7.4-.1.8-.4-.1.3-.3.5-.8.4zM438.9 229.8c.2-.2.3-.6.7-.6-.1.5-.3.7-.7.6zM418.4 229.8c-.2-.2-.8 0-.7-.6.4 0 .6.2.7.6zM372.6 229.8c-.3 0-.3-.4-.3-.7.5-.1.5.5.3.7zM410.6 229.3c-.3.3-1.1-.1-1.5-.1.3-.7 1.2-.1 1.5.1zM387.8 228.4c0-.3-.3-.4 0-.7.2.2.1.6.7.4-.1.3-.4.3-.7.3zM462.3 227.6c.2 0 .4.2.1.3 0 .2.3.1.4.1-.1.6-.7.2-.5-.4zM405.4 227.3c.4.1.7.3.8.7-.3.3-.8-.2-.8-.7zM480.8 227.7c-.4 0-.6-.1-.6-.4.3-.3.6 0 .6.4zM442.8 227.4c-.1-.5.2-.5.6-.6-.1.4-.3.6-.6.6zM425.2 226.6v-.8c.8 0 .6.1 1.4.1 0 .6-.6.8-1.4.7zM430 226.2c-.1.3-.8.1-1.1.1 0-.7.8-.2 1.1-.1zM453.2 225.9c-.2-.2-.6-.3-.7-.7.3.1.7.2.7.7zM462 225.8c.3-.4.4-.9 1.1-.8 0 .6-.5.7-1.1.8zM479.8 224.8c.4-.1.5-.4 1-.4-.1.3-.5.7-1 .4zM445.5 224.6c-.4 0-.3-.8.1-.7 0 .4 0 .6-.1.7zM449.8 224.2c-.5 0-.2-.7-.7-.7.2-.3.9.1.7.7zM476.3 224.1c-.4 0-.7 0-.6-.4.4-.1.7 0 .6.4zM437.2 223.9c-.4 0-.5-.2-.6-.6.5 0 .6.2.6.6zM438 223.7c-.4.1-.4-.3-.4-.7.4-.1.4.2.4.7zM491.5 223.5c-.1-.8.5 0 .7-.4.5.3-.5.3-.7.4zM401 223.1c0 .3-.6.1-.7 0 .1-.1 0-.5.4-.4-.2.2-.1.4.3.4zM378.9 222.9c0-.4.6-.3 1-.3-.1.4-.5.4-1 .3zM439.1 222.7h-.4c-.2-.4-.1-.4.1-.7.4 0 .4.3.3.7zM431 222.5v-.6c.2.2.7.5.8 0 .5.5-.5.5-.8.6zM454.4 222.1h-.6c.1-.1.1-.2.1-.4h.4c.1.1.1.3.1.4zM424.1 221.8c-.4 0-.5-.2-.4-.6.4.1.7.4.4.6zM303.5 221.7c-.2.4-.8-.1-.8-.4.3.1.6.2.8.4zM326.4 221.7v-.4c.2 0 .7-.1.6.3-.3-.1-.3.1-.6.1zM487.8 221.3c-.1.3-.9.1-.8-.3.5-.2.4.3.8.3zM455.4 221.1c-.4 0-.8.1-1-.1 0-.4 1.2-.5 1 .1zM499.4 220.6c.1-.4.6-.5 1.1-.4-.2.3-.8.6-1.1.4zM447.7 220.7h-.6c-.1-.5.7-.5.6 0zM392.8 219.9c.4-.4.7 0 1.4-.1-.1.6-.9.2-1.4.1zM459.5 219.6c.4.1.4-.2.7-.1.1.4-.8.8-.7.1zM500.6 219.7c-.4 0-.5-.3-.8-.4.2-.4.8.1.8.4zM496 219c.2.2.5.4 1 .3-.1.5-1.1.2-1-.3zM481.1 219.6c-.5.1-.8-.1-1.1-.1.1-.3-.3-.3-.1-.7.3-.2 1.3 0 1.2.8zM463.1 219.3c0-.4.9-.3.8.1-.2.3-.5.1-.8-.1zM437.6 219.6c-.2 0-.2-.1-.4-.1 0-.4.2-.5.6-.4 0 .2-.2.3-.2.5zM382 219.4c-.3-.2.1-.4 0-.8.4 0 .5.4.6.7-.3 0-.3.2-.6.1zM445 219.2c-.1.3-.7.1-.8 0 .1-.4.7-.2.8 0zM442.2 219.3c-.3-.7 1.1-.8 1-.1-.4-.1-.5.2-1 .1zM419.2 219h-.4c0-.4.1-.6.4-.6.2.3 0 .2 0 .6zM394.9 218.9c-.1-.5.6-.2.7-.1.1.2-.6.4-.7.1zM488 218.6c.2-.2.1-.7.3-.8.5 0 .2.9-.3.8zM432.4 217.8c.1-.1.3-.2.6-.1 0 .2 0 .2.1.3-.8.6.5.1.4.6-.5.2-1.1-.2-1.1-.8zM463.4 218.5c-.5-.1-.6-.7-.6-1.4.4.3.6.7.6 1.4zM461 217.9v-.4c.2 0 .7-.1.6.3-.3-.1-.3.1-.6.1zM393.7 217.8c-.7 0-1.1-.3-1.3-.8.6 0 1.2.1 1.3.8zM409.2 217.6h-.7c-.1-.5.4-.2.7-.3v.3zM377.4 216.6c-.4 0-.7 0-.7-.4.2-.2.8-.1.7.4zM488.5 216.4c-.6.1-.4-.8-.7 0-.7-.3-.1-1.1.7-.8v.8zM467.5 216.1c-.1.2-1.3.3-1.1-.1.5-.2.6.2 1.1.1zM346.1 215.9c-.1.3-1 .3-.7-.3.4-.1.4.3.7.3zM403.6 215.9c-.3-.2-.7-.2-.6-.7.5 0 .7.2.6.7zM312.8 215.8c-.7.2-1.1-.4-.7-.8.5 0 .6.4.7.8zM443.3 215.5v-.3c.4 0 .3-.2.6 0v.3c-.3.2-.2 0-.6 0zM315.6 215.6c-.3 0-.4-.2-.7-.3.1-.3.9-.1.7.3zM475.8 214.8c-.4.1-.2-.3-.3-.6h.4c.1.3-.1.4-.1.6zM439.6 214.1c0 .2-.3.1-.4.1 0-.7.1-.7-.1-1.1.3-.3.4 0 .7 0 .1.6-.5.9-.2 1zM444.2 214c-.4 0-.8-.1-.7-.6.2.3.9-.1.7.6zM494.3 213.7c-.1-.4.2-.4.1-.8.5.1.4.5.6.6 0 .2-.3.2-.7.2zM453.6 212.3c.3.3.4-.1.8 0 .2.4-1 .4-.8 0zM368.1 212.4c-.5-.1-.1-.8.3-.8 0 .4-.3.4-.3.8zM444.5 211.6c.5-.1.6.1.7.4 1.7 0-1 .7-.7-.4zM414.4 212c-.4.1-.5-.2-.8-.3 0-.2.3-.1.3-.3.1 0 .1.2.1.3.2 0 .2 0 .3-.1.1 0 .1.1.1.1v.3zM467.5 211.6h-.4c-.2-.2-.2-.5-.1-.8.4.4.1-.2.6-.1-.3.3-.1.4-.1.9zM406.7 211.3c.2-.2.7-.4 1-.1-.2.4-.5.1-1 .1zM474.1 211.3c-.5.1-.3-.4-.6-.4.1-.5.6 0 1 0 0 .2-.5.1-.4.4zM470.7 209.6c.1-.8.5.1 1.1-.3-.2.5-.6.4-1.1.3zM497.5 208.9c-.4 0-.8 0-.7-.4.4 0 .9-.1.7.4zM440.1 208.8c-.3.1-.4-.8-.1-.8.5-.2.2.7.1.8zM393.1 208.3c-.2.4-.8-.1-1-.1.2-.3 1-.1 1 .1zM490.5 208.1c-.4-.3.2-.9.6-.6 0 .4-.4.4-.6.6zM500.1 207.8h-.4c-.1-.3.1-.4.1-.6.2.1.3.3.3.6zM444.8 207.6c-.4 0-.6-.1-.6-.4.4 0 .7 0 .6.4zM402.5 207.4c.1-.5.5-.2.7 0-.2.3-.4.2-.7 0zM322.5 207.5c0 .2-1.2.3-1-.1.5-.1.7.1 1 .1zM418.1 207.5c-.4 0-.6-.1-.6-.4.4-.1.6 0 .6.4zM498.4 206.5c0 .2-1.2.3-1-.1.4 0 .8-.1 1 .1zM440 206c-.2-.1-.8 0-.7-.4h.6c0-.1-.1-.1-.1-.1.1-.6.4.4.2.5zM435.1 205.8c-.1.3-.6-.2-1.1 0 .3-.3.7-.2 1.1 0zM490.7 205.7c0 .2-.3.1-.4.1-.1-.2-.2-.4-.1-.7.2.1.2.5.5.6zM405.7 205.4c-.1-.4.3-.4.7-.4-.1.3-.3.4-.7.4zM408.8 205.3c-.5 0-.3-.9.3-.7.1.4-.4.2-.3.7zM487.7 205.1c-.3 0-.5 0-.7-.1.2-.2.9-.5.7.1zM469 204.8c-.4.1-.4-.2-.7-.3.1-.3.9-.1.7.3zM441.8 204.8c0-.4.4-.4.8-.4-.1.3-.3.5-.8.4zM482.7 204.3c.4-.4 1 .1 1.4.1-.2.5-1.1 0-1.4-.1zM363.2 204.4c-.2-.3-.7-.2-.7-.7.6-.1.9.5.7.7zM496.7 203.6c.2.3 1 0 .8.6-.5.2-1.1-.1-.8-.6zM491.4 204.1c-.2-.5.9-.7.8-.1-.2.2-.5.2-.8.1zM381.2 203.9c-.1.3-.9.1-1.3.1.3-.4.8-.5 1.3-.7.1.3-.5.5 0 .6zM497.8 203.9c.1-.3.6-.3 1.1-.3.1.5-.7.1-1.1.3zM437.2 203.7c-.2-.1-.5-.3-.4-.7.3 0 .3-.2.6-.1-.1.5-.5.3-.2.8zM409.1 203.4c-.4-.2-.6-1.1-.4-1.4.4.2.7 1 .4 1.4zM494.3 202.9c-.1-.3.9-.7.8-.1-.1.1-.4.1-.8.1zM439 202.9c.1-.7.8-.7 1.3-1-.2.6-.5 1-1.3 1zM427.1 202.9c-.3-.1-.7-.1-.7-.6.4 0 .8.1.7.6zM396.7 202.7c-.2-.2-.7-.1-.8-.3.1-.5.8 0 .8.3zM484.5 202.2v-.6c.5-.1.5.7 0 .6zM468.8 200.9c.6 0 .5.3 1.1.1-.1.5-1.2.4-1.1-.1zM403.5 199.6c.4-.2.6-.1 1.3-.1v.6c-.8 0-1.3.6-1.3-.5zM456.3 199.9c-.2-.3-.7-.2-.7-.7.4.1.4-.2.7-.1-.1.4.3.5 0 .8zM401.8 199.1c.2-.2.4-.5.8-.4 0 .3-.5.7-.8.4zM482.5 198.1c-.1-.5.7-.1.4-.7.4 0 .5.4.6.7-.1.1-.9.3-1 0zM453.2 196.7c-.1-.7.8-.6.8-.1-.3 0-.4.2-.8.1zM426.9 196.6c-.1-.4.8-.1 1-.1.1.3-.9.3-1 .1zM486.4 196.4h-.4c.2-.3.1-.9.7-.8.1.4-.4.3-.3.8zM496.7 195.7c-.4.3-1.3-.1-1.4-.7.4.3.9.5 1.4.7zM466.7 195c-.5 0-.5-.4-.6-.8.6-.2.9.4.6.8zM424.5 194.9c-.1.3-1 .2-.8-.3.4-.1.5.2.8.3zM384.1 194.5c.3.1 1 0 1 .4-.6-.1-1 .3-1-.4zM484.3 194.9c-.4.1-.4-.2-.7-.3.1-.3.9-.1.7.3zM486.2 194.2h1.1c-.1.6-1.2.7-1.1 0zM304.9 193.2c-.1-.5 0-.9.3-1.1 1.1 0 1.5.7 2.2 1.1-.2 1-2 .4-2.5 0zM448.3 193.6c-.3-.3-.1-1.4.6-1.3-.4.3-.7.7-.6 1.3zM323.3 193.6c-.5.1-.5-.2-1-.1-.1-.5.4-.4.6-.7.3.1.4.4.4.8zM492.2 193.5c-.4 0 0-1 .3-1.1-.2.3-.1.8-.3 1.1zM442.2 193.5c-.1-.4.3-.4.7-.4-.1.2-.3.3-.7.4zM329.9 193c.3-.1.3.3.7.1 0 .5-.8.5-.7-.1zM433 193.3c-.4 0-.5-.2-.6-.6.4.1.5.3.6.6zM499.1 193.2h-.6c0-.4.3-.4.6-.4v.4zM495.4 193.2c-.1-.5.7-.2 1-.3-.2.2-.6.2-1 .3zM457.8 193h-.6c-.1-.5.7-.5.6 0zM447.3 192.9c0 .2-.4.1-.6.1.1-.3-.2-.8.3-.7-.2.3.1.3-.1.6h.4zM455.4 192.5c0-.3.2-.4.3-.7.3.1.1.9-.3.7zM409.1 192.5c-.3 0-.4-.2-.7-.3 0-.5.7-.2.7.3zM378.9 191.9v-.6c.4-.1.4.2.7.3-.1.3-.3.3-.7.3zM390.8 190.9c.4 0 .9 0 .8.4-.1.2-.8.1-.8-.4zM458.8 190.1c.3-.5.2.5.7.3-.2.6-.6 0-.7-.3zM404 189.8c-.9.1-.8-.9.1-.7.1.3.1.6-.1.7zM400.5 188.4c.3.1.8-.2.7.3-.2.2-.7.1-.7-.3zM384.5 188.1c.3.1.4.3.8.3 0 .6-.7.1-.8-.3zM327 188.6c-.5.1-.8-.1-.8-.6.4 0 .7.2.8.6zM411.3 186.7h.8c0 .3-.4.3-.6.4.3.2.7.3 1.1.3-.2.5-1.4.2-1.3-.7zM409.1 187.2c-.3 0-.3-.2-.6-.1 0-.4.2-.5.6-.6.2.1.2.5 0 .7zM363.2 186.6h-.6c.1-.3.2-.7.6-.7v.7zM443.9 186.5h-.6c-.1-.3.1-.4.1-.6.5-.1.6.2.5.6zM404.5 186.5c.1-.3.2-.7.6-.7-.2.3-.2.7-.6.7zM489.1 185.6c.1.4.2-.3.6-.1 0 .3-.2.3-.1.6-.4.1-.6-.1-.6-.6.2-.1.3.1.1.1zM385.4 185c0-.2 0-.2-.1-.3.1-.2.4-.3.7-.3-.1.4-.3.6-.6.6zM453.6 184.8c-.7.1-1.3-.4-1-.8.4.4.8.2 1 .8zM387.8 183.8c.3.4.2-.7.8-.4v.6c-.6-.2-.6.2-.6.7-.3-.1-.5-.5-.4-1 .3-.1.3.1.2.1zM442.1 184.5c-.4 0-.4-.3-.4-.6.3.1.6.1.6.4-.2 0-.2.1-.2.2zM494.2 183.8c.3-.8 1.2-.3 1.4-1 .7.3-.2.7 0 1.4-.7.1-.8-.3-1.4-.4zM453.5 182.5h-.4v-.6c.4-.1.4.3.4.6zM478.4 181.7h-.8c.1-.2.5-.2.6-.6.2.1.3.3.2.6zM381.4 181.5c-.6.1-.6-.3-.7-.7.3.3.7.3.7.7zM411.3 179.4c0-.5.5-.4 1-.4 0 .5-.6.3-1 .4zM401.1 178.9c.5-.3.9-.4 1.7-.6-.2.5-1 .5-1.7.6zM477.9 178.6c.1-.3.4-.4.8-.4 0 .4-.5.3-.8.4zM410.9 178.2c-.6-.4-1.1-.4 0-.6v.6zM412.3 177.7c-.1.4-.6 0-.8 0 .1-.4.5 0 .8 0zM339.9 177.9h-.4c0-.5.5-.3.6-.7.4.2-.4.3-.2.7zM295.5 177c-.3.4-1.1 0-1.5 0 .2-.5 1 0 1.5 0zM488.8 176.5c.5-.1.7.2 1.1.1 0 .4-1.2.5-1.1-.1zM431.7 176.9h-.6c-.1-.5.7-.5.6 0zM373.6 176.8c-.1-.4.2-.4.1-.8.2 0 .4.2.4 0 .4.2 0 .9-.5.8zM363.1 175.8c-.3-.8-1-.2-1.3-.8.8-.2 1.7.1 1.3.8zM499.1 175.6c-.2 0-.2-.2-.4-.3.1-.4.4-.2.7-.1-.1.2-.3.2-.3.4zM494.7 175.5c-.4 0-.5-.2-.4-.6.2 0 .5.1.6-.1.3.1-.2.5-.2.7zM419.6 175.1c-.4 0-.9.1-1.1-.1.1-.3 1.3-.4 1.1.1zM408.8 174c.2-.7.5-.2 1 0-.2.4-.7.2-1 0zM489.8 173.3c-.3-.1-.5-.4-.6-.8.5-.1.6.2 1.1.1-.1.2-.3.4-.5.7zM491.5 172.4c-.1-.5.7-.5.6 0-.3.2-.2 0-.6 0zM497 172.1c0-.4.5-.3.8-.3-.1.4-.5.6-.8.3zM500.6 172h-.7c-.1-.5.4-.2.7-.3v.3zM375.5 171.7c-.4 0-.7-.3-.4-.6.4 0 .5.2.4.6zM476.5 170.6c.2-.4.7.2 1.3 0-.2.5-1 .1-1.3 0zM442.6 170.7c0-.2 0-.2-.1-.3.2-.3.5.1.8-.1.1.4-.3.5-.7.4zM422.7 170.6c-.7.1-.3-1 .3-.8.1.4-.2.5-.3.8zM467.9 170.2c0-.4.8-.3.7.1-.2.3-.6.1-.7-.1zM484.1 170.3v-.6c.4-.1.3.3.6.3-.1.3-.3.3-.6.3zM468.1 169.5c.1-.7.3-.2.7-.1-.2.4-.3 0-.7.1zM476.2 167.8c-.4-.3 0-1 0-1.4.5.4-.1.7 0 1.4zM389.4 166.9c0 .2-.4.1-.6.1 0-.2.6-.4.1-.6.6-.5.5.6.5.5zM364.5 166.9c-.6 0-.8-.4-1.5-.3.1-.4-.2-.4-.1-.8.7.3 1.1.8 2 .3-.2.3-.3.6-.4.8zM365.3 166.2c-.1-.5 1.1-.5.6-1 .2-.3.3.1.7-.1-.3.6-.6 1-1.3 1.1zM424.8 165.3h-.7c-.1-.5.9-.8.7 0zM445.6 164.7c.7-.7 1.5 0 0 0zM394.6 163.7c-.4-.2.1-.6.4-.6.2.5-.3.3-.4.6zM499.9 163.4c.2-.2.6-.2 1-.3-.1.4-.7.6-1 .3zM492.9 162.7h1.4c-.2.7-1.3.3-1.4 0zM465.5 162.9c-.2-.4 1-.4.8 0 0 .1-.7.3-.8 0zM499.4 161.6c.3-.1.3.3.7.1 0 .4-1 .5-.7-.1zM437.7 161.5c.4-.1 1.4-.3 1.5.1-.2.5-1.4.6-1.5-.1zM455 161.7c0-.3.4-.3.7-.3.1.6-.5.6-.7.3zM436.3 161.3c-.5.2-.4-.9.1-.6.1.3-.1.4-.1.6zM316.6 160.9h-.4c-.1-.5.3-.5.4-.8.4.1 0 .6 0 .8zM498.2 160.6h-.7c-.1-.5.4-.2.7-.3v.3zM434.5 160.3h-.6c.1-.3-.3-.3-.1-.7.2.3.6.3.7.7zM473 160.1c.1-.2.5-.4.7-.1 0 .3-.6.3-.7.1zM326.7 158.8c0-.6.5-.4.7-.1-.1.4-.4.1-.7.1zM495.3 158.5c.2-.6.5.1 1 0-.3.5-.6.1-1 0zM464.3 158.7c-.2-.7.8-.8.7-.1-.2 0-.4.1-.7.1zM499.1 158.5c-.5.1-.4-.4-.4-.8.4-.1.2.6.4.8zM417.8 156.6c.4-.1.3-.7.7-.7v.7c-.3 0-.4.2-.7 0zM470.4 155.7c.1-.4.2-.5-.1-.7.3-.4.9.7.1.7zM385.8 153.9c.5.2 1.3.1 1.4.7-.3 0-1.5 0-1.4-.7zM474.4 153.5c.4 0 .7 0 .7.4-.3.3-.7-.1-.7-.4zM499.8 153c-.2-.5.4-.3.4-.6.4.2 0 .8-.4.6zM387.9 152.1c.1.3.4.4.4.7-.3.3-.8-.4-.4-.7zM417.1 151.8c-.4 0-.3-.6-.6-.7.3-.4.7.3.6.7zM401.5 151.1h-.7c0-.4.6-.6.8-.4 0 .1-.1.2-.1.4zM464.8 150.8c0-.4.3-.4.7-.4.1.4-.3.4-.7.4zM411.1 150.8c-.2-.1-.4-.2-.4-.6.1-.1.3-.2.6-.1-.1.3-.1.5-.2.7zM474.4 150.1c-.5 0-.7-.2-.7-.6.3-.2.8 0 .7.6zM486.4 149.7c.2-.3.2-.7.7-.6 0 .4-.3.5-.7.6zM486.9 148.3c.1-.3.1-.6.4-.6.2.2-.1.6-.4.6zM492.1 148.1c-.3-.1-.7-.2-.7-.6.2.3.8.1.7.6zM482.1 148.1h-.4c0-.4.4-.3.4-.7.5.1.1.5 0 .7zM371.3 147.4c-.1-.5.2-.6.7-.6-.1.3-.3.6-.7.6zM418.2 147.1c-.1-.1-.3-.2-.3 0-.6-.1 0-.7-.7-.6.2-.6-.6-.3-.4-1 .3.3.6.3 1 .1.1.6.5.8.4 1.5zM480.8 145.3c-.4 0-.4-.3-.4-.7.3.1.5.3.4.7zM473.7 145.2c0-.4 0-.7.4-.7 0 .3.2.3.1.6-.1.1-.3.1-.5.1zM416.5 143.5c-.5.1-.2-.6-.8-.4 0-1 1.4-.2.8.4zM362.9 142.2c-.6.1-.4-.4-1-.3.1-.4 1-.1 1 .3zM384.5 142c-.1-.2-.4-.2-.4-.6.4.1.4-.2.7-.1 0 .3-.2.4-.3.7zM493 141.7c0-.4.2-.5.6-.6.1.1.1.2.1.4-.1.2-.3.2-.7.2zM291.3 140.1c-.5 0-.6-.5-.6-1 .4.2.5.6.6 1zM461.3 137c.4 0 .6.1.6.4-.2.3-.7.1-.6-.4zM474.8 136.9c-.2-.1-.5-.3-.4-.7.5-.2.7.4.4.7zM459.5 135.4c-.2-.1-.5-.1-.6-.4-.1-.5.5-.2.4-.6.4 0 .1.7.2 1zM460.9 134.1c-.2-.1-.3-.4-.3-.7.4 0 .6.4.3.7zM460.3 133.3c-.4 0-.5-.2-.4-.6.4-.1.5.2.4.6zM472.5 132.1c-.6.2-.3-.4-.7-.4.3-.4.8.1.7.4zM489.4 129.9c-.3-.1-.8-.1-.8-.6.3.1.8.1.8.6zM469.7 129.5c0-.3.6-.1.8-.1.1.3-.6.3-.8.1zM478.3 128.2c-.1-.2.1-.3.3-.3.1-.1 0-.7.7-.6 0 .3.2.3.1.6-.6-.2-.5.4-1.1.3zM497.8 126c-.3.4-.6-.1-1 .1 0-.6.8-.2 1-.1zM436.9 126c.2-.3.9-.1 1.1-.3-.1.3-.8.5-1.1.3zM395.9 126.1c-.1-.4.1-.6.6-.6 0 .5-.2.7-.6.6zM483.9 125.5c0-.5.8-.9.8-.1-.4-.1-.4.2-.8.1zM371.1 118.2h-.4c-.1-.4.2-.5.3-.8.2.1.8 0 .7.4h-.6v.4zM490.2 112.5c0 .3-.6.1-.8.1 0-.4.7-.3.8-.1zM470.2 108.7c.1.4.3-.4.6 0 0 .2-.2.2-.3.4-.3 0-.4-.2-.7-.3 0-.2.2-.3.6-.3-.1.2-.2.2-.2.2zM466.2 108c.4 0 .8 0 .7.4-.3.1-.7.2-.7-.4zM311.1 105.5h-.4c-.1-.2-.2-.4-.1-.7.3.1.5.2.5.7zM498.2 102.6c-.1-.3.1-.4.1-.6.1.1.5 0 .4.4 0 .2-.2.3-.5.2zM446 102.1c-.6.1-.7-.3-1.1-.4.3-.4 1.2-.2 1.1.4zM449.9 100c.3-.2.2 0 .6 0 .1.5-.7.5-.6 0zM465.2 100.1c-.3-.1-.5-.2-.6-.6.6 0 .9.4.6.6zM483.1 96.8c-.2-.1-.2-.5-.3-.7h.6c-.2.3 0 .3-.3.7zM484.3 95.6c-.2 0 0-.4-.3-.4.1-.4.5.1.7.1 0 .5-.3 0-.4.3zM376.8 86.5c-.6 0-.2-.8.3-.6 0 .3-.4.2-.3.6zM499.8 81.7c0-.4.5-.4.8-.6-.1.4-.3.7-.8.6zM381.4 79.8c-.2.3-1 .1-.8-.4.3 0 .3.5.8.4zM324 75.8c-.4 0-.6-.3-1.1-.3.3-.3.2-.3.4-.8.4.1.8.2.7-.4.3.1.1.5.6.4-.2.4-.4.8-.6 1.1zM433.1 71.6c-.6.1-.1-.6-.1-.8.5-.1.9.3.6.7-.2-.2-.6-.5-.5.1zM458.2 68.1h.8v.3c-.3 0-.7 0-.8-.1v-.2zM328.9 316h-.1c-.6-.4-.8-1.3-1.4-1.7.6-.3 2-1.3 2.5-.4-.7-.1-1.2.1-1.4.6.2.7.9.6 1.5.6-.2.5-1 .3-1.3.7.1 0 .2.1.2.2zM476.8 68.1c-.1.6 1.2-.1 1.1.6-.6 0-1.2-.1-1.3-.6h.2zM422.3 314.2c0 .5-.5.6-1.1.6.2-.5-.4-.3-.3-.7.4 0 .7 0 .6.4.1-.1.7-.2.3-.3 0-.4.2.2.5 0zM328.8 313.2c-.4 0 .2-.2 0-.6-.1.4-.5.1-.6.3-.1-.3-.6-.1-.6-.6.6-.1.8.8 1 0 .3 0 .1.5.4.6.1.2-.2.1-.2.3zM377.7 310c-.6.3-1.4-.3-1.8-.6.1-.4.4.2.8 0-.1.6.5.5 1 .6zM357.7 309.6c0 .2 0 .4.1.4 0 .2-.4.1-.6.1.2-.2.2-.5-.1-.6 0-.5.6.3.6-.1.2 0 .1.2 0 .2zM357 308.6c.2-.3.6-.3 1-.4 0 .3.2.4.1.8-.9-.3-1.7.2-1.8-.8.2.4.5 0 .7.4zM366.3 308c-.1-.4-.5-.7-.3-1.5.4.2.7.1 1 .4.1.4-.3.5-.1 1-.3 0-.6-.1-.6.1zM468.5 307.3c0 .2-.4.5-.3 0-.7.2-2.2.8-2.4-.1.3.3 1.8.3 1.5-.1.4-.5.7.3 1.2.2zM300.3 306.8c.1.5-.7.3-.8.1.1-.1.3-.1.8-.1zM304.4 305.1c.5.5-.2.1-.1.6-.4 0-.5-.4-.6-.7-.3-.5.4.7.7.1zM381.2 302.1c-.6-.1-.4.4-1 .3-.1-.3-.2-.5-.3-.8.5-.1.2.5.4.6.4-.3.7-.6 1.1-.8.1.3-.4.2-.2.7zM328.2 301.8c.2-.3.2-.7.7-.6l-.3.6c.2 0 .4 0 .4-.1.5.3-.5.3-.8.1zM422.7 296.2c.1-.1.3-.2.4-.3 0-.1-.1-.1-.1-.3-.3 0-.4.1-.4.4-.4.1-.3-.4-.7-.3.6-.7.6-.4 1.8-.4-.1.7.9.4 1 .8.3-.1-.2-.2.1-.4h.7c-.6.6.3 0 .7 0-.7 1.9-2.5-.1-3.5.5zM336.1 291.9c-.5.4-1-.4-1.3-.7.4-.3.6.8 1.3.7zM475.2 291.2c-.4.1-.4-.2-.7-.1.5-.3 1.1-.6 1.5-1-.1.5-.8.4-.8 1.1zM393.2 290.6c0 .4-.1.6-.4.6-.1-.4.3-.4 0-.7.2-.5.1.4.4.1zM493.5 290c.4-.1.4.3.4.7h-.6c0-.3 0-.5.2-.7zM480.7 289.9c.3.2-.4.5-.7.6 0-.3.2-.3.1-.6-.2.3-.8.4-1.1.1.5-.5 1.4.1 1.7-.1z"/><path class="st2" d="M479.1 289.8c-.1-.2-.3-.8-.8-.4-.1-.4.5-.2.3-.7.4.2.7.6 1.3.7 0 .6-.7.2-.8.4zM477.6 288.9c-.1.3-.2-.2 0-.1 0-.4-.8.1-.6-.4.5.1.8-.4 1.1-.1-.2.1-.4.3-.5.6zM457.5 286.7c-.1.1-1.2-.1-1-.7.2 0 .2 0 .3-.1.3.1.3.2.1.4.3.1.3-.2.3-.4.4.1.2.4.1.7.1.1.1.1.2.1zM393.4 286.5c.1 0 .1-.1.1-.1.4.5-.3.1-.7.1 0-.2.2-.3.6-.3v.3zM419.8 284.2c-.1-.5.1-.7.3-1 0-.1.1 1.1-.3 1zM406.4 282.5c-.4 0 .2-.2 0-.6.4-.1.4.2.8.1.1.4-.4.7.1.8-.1.4-.6-.1-.4-.4 0 .6-1.5.6-1.5 0 .7-.2.7.4 1.1-.1 0 0-.1.1-.1.2zM444.3 282.7c-.3-.2-.7-.4-.6-1 .4.6.5.6 1 .1.1.6-.6.3-.4.9zM341.2 282.6c-.4-.1-.7-.3-.8-.7.2.2.7.2.8.7zM417.1 280.9c-.2.7-.7 1-1.5.7.7.3.6-1.1 1.5-.7zM478.7 278.7h-.4c.1-.7-.3-.1-.6-.4.2-1 .9.1 1 .4zM459.5 276.3c-.3-.1-.3-.5-.7-.6.1-.2.3-.4.4-.7.5.5-.3.6.3 1.3zM397 271.5c-.2-.2-.5-.4-.4-1 .6-.3 1.6-.2 2-.7.5.7 1.1-.3 2.1 0-.1.8-1.5.8-1.5 1.3-.6.1-.9-.2-1.5-.1-.4.4-.7.8-1.3 1-.5-.6.2-.8.6-.5zM451.1 266.6c0-.1.1-.1.1-.1.4-.1-.3-1.4.6-1.1-.6 0 .1 1.3-.7 1.2zM392.4 265.8c-.2-.1.1-.2 0-.4h.7c.1.4-.6 0-.7.4zM492.2 259.9c0-.2 0-.4-.1-.4.4-.3 1 .2 1.4-.1.1.1-.7.5-1.3.5zM439.8 258.5c-.6-.1-1.2-.3-1.8-.4.1-.5.4-.2.1-.7.3.4 1.5.6 1.8.6.5 0-.2.1-.1.5zM488.4 258c0-.7.5-1 1-1.3 0-.3-.4-.2-.3-.6.9.3.3 2.1-.7 1.9zM391.8 255.1c.2.9-1.2-.2-1.4-.6.4-.4 1 1 1.4.6zM483.8 255.2c0 .1-1 0-1-.4.2.2.9.1 1 .4zM491.6 251c.5.4.7-.7 1-1 .2 0-.1.4.3.6-.2 1.3-2.4.6-2.8 1.7-.3-.9-2.1.4-2.4-.7 0-.3.5 0 .6 0-.4-.7.3-1.2.4-2 .9.5 1.2-.5 2.2-.3 0 .3-.4.3-.7.3.2.4.7.5 1.3.4.4.2-.7.1-.8.3-.1 1.1 1.5-.1.9.7zm-1.8.4c-.3 0-.3.2-.6.1 0-.2 0-.4-.1-.4-.6.5.7 1 .7.3zm1.1-.4c-.4.2-.3 0-.8 0 0 .3.2.3.1.6.3-.1.9 0 .7-.6zM456.7 252.1h-.7c.4-.8.9-.7 1.4-1.3-.4.4.2.1.1.6-.4-.3-.6.5-.8.7zM426.9 248.5c.6-.1.8 0 1.1-.6.3.8-.7.9-1.1.6zM338.4 246.1c-.3.7-.9.2-1.3 0 .4-.3.5.3 1.3 0zM451.9 243.4c-.3-.1.2-.7-.3-.8-.6.3.3 1.3-.6 1.4.2-.6-.1-1.1.1-1.7h.7c.3.5.5.9.1 1.1zM488.4 241.9c-.6-.2-.1-1 .3-1-.2.3-.4.5-.3 1zM447 241.5c-.1.3-.3-.4-.8-.1 0-.3.4-.3.7-.3-.1.2-.1.4.1.4zM369.5 236.4c.1.4.4-.2.8 0-.2.5-1.3.8-1.4 0 .7.3.5-.4.7-.6.4 0 .2.1.1.3h.4c.6.3-.6.1-.6.3zM485.6 234.5c.2 0 .3.2.3.6-.3.1-.6.5-.7 0-.2 0-.2.4 0 .4-.6.5-.1-.4-.6-.4-.1.1.1.1.1.1-.8-.9 1-.4.9-.7zM463.1 231.8s-1 .5-.8-.3c.2.2.7.1.8.3zM443.8 220.1c.3 0 .3-.5.7-.4-.2.2-.3.6-.7.6-.1-.2-.4-.4-.1-.7.1 0 0 .3.1.5zM412.2 215.8c0 .5-.3.1-.7-.1 0-.3.5 0 .6 0v-.7c0-.1-.4-.2-.6 0-.4-.1.4-.4.4-.6.4-.1.3.3.6.3-.4.2-.1.4-.3.8.3 0 .4-.1.4-.4 1.6.7 2.5 2.1 4.1 2.8-.1.6-.9.5-1.4.7-.2-.3 0-.2 0-.6-.4-.1-.3.4-.8.3-.1-1-.8-.5-1.1-1.1-.3.1-.5.4-.7.1.1-.2.2-.3.4-.3 0-.3-.2-.3-.1-.6-1.2.3.1-.1-.8-.6zM486.3 216.8c-.2.3-.2.8-.6.8-.3 0-.7-.1-.6-.6.5 0 .6-.4 1.2-.2zM393.9 217.2c.3-.8 1.2-1 .8-1.7.7.5-.2 1.5-.8 1.7zM471.6 217.1c-.5-.3.2-.5.4-.6-.4-.4-1 .3-1.4.4-.1-.3-.6-.2-.6-.7.1-.5 1.4.1 1.3-.7.5.3.6.8 1.3.6-.3.4-.8.5-1 1zM461.5 214.2c-.4.3-.1.9.3 1.1.5.2.1-.5.6-.3-.4 1.4-2.2-.5-.9-.8zM434.6 215.4c0 .3-.5.1-.7.1.3-1.5-.1-.2.7-.1zM437.7 214.7c-.3 1-1-.3-.7-.6.5.1 0 .9.7.6zM476.2 211.3c-.5.1-1.2-.7-.4-.7 0 .1-.1.1-.1.3-.1.3.7-.2.5.4zM450.6 187.4c.5-.2 1.1.5 1.1-.1.6.4-1.1.9-1.1.1zM399.4 177c.1-.4-.2-.4-.1-.8.4 0 .2.5.4.7.1-.1.3-.1.3-.3.3.1-.1.6-.6.4zM352.5 174.8c.4.4.1.4 1 .4.1.4-.2.4-.1.8-.7 0-1.1-.1-2-.4.1-.9.7-.4 1.1-1 .2.1.1.2 0 .2zM396.6 161.7c-.3.2-1.4.3-1.1-.4.1.3.9.3.6 0 .1-.3.7 0 .5.4zM365 146.3c.3.3-.8 0-1-.1.3-.5.6.2 1 .1zM447.6 109.4c-.2.4-.7-.1-.8-.3 0-.3.5.3.8.3zM463 69.7c0-.8.2 0 0 .3-.3 0-.5 0-.7-.1.1-.3.3-.1.7-.2zM482.8 311.7c-.7.2-1.2-.9-.4-1-.3.5.2.1.6.1 0 .4 0 .7-.2.9zM365.2 257.8c.1-.5 1.5-.9 1.8-.3-.2.7-1.5.5-1.8.3zM439.7 231.5c.5-.4 1.6-.2 1.3.4.5-.1 1.1.5 1-.3.4.2 0 .6.4 1-.8.7-2.9.5-2.7-1.1zM393.9 216.6c-.3-.2-.3-.8-.6-1-.4 0-.1.5-.6.4-.2-.2-.2-.4 0-.6-.4 0-.6.3-1 .3.3-.8 2.1-1.1 2.7-.3-.7 0-.3.5-.5 1.2zM463.8 207.2c-.4.1-.5-.1-.8-.1 0-.2 0-.4-.1-.4.1-.5.6-.1 1-.1-.1.2-.1.4-.1.6zM473.4 191.9c-.4.1-.4-.2-.7-.1.1-.4.1-.8.7-.7.2.2.2.6 0 .8zM480.8 183.5c1.6-.1 2.5.5 3.9 1.1-.5.6.8 1.3 1.1 1.1-.6 2.1-5.7.1-5-2.2zM490.5 178.7c-.2-.3-.5-.5-.4-1.1.9-.2 1.6-.4 2.5-.3-.2.3-.7.1-.6.7.1.3.8 0 .8-.3.3.8-1.4.9-2.3 1z"/></g><g style="clip-path:url(#SVGID_00000020372408231981281290000016376920127961921965_)"><path class="st2" d="M485.4 172.3h-.6c0-.2-.2-.2-.4-.1.1-.4.1-.3 0-.7.6-.1.7.4 1 .8zM464.2 172.3h-1c-.2-.2-.1-.6-.1-1 .6.1.7.7 1.1 1zM416.7 172.3h-1c.2-.2.7-.4 1-.1v.1zM481.4 171.3c-.1-.3-.7-.1-.7-.6.5.1.4-.3.8-.3.2.5-.2.5-.1.9zM323.1 171.2c-.3.3-.9-.2-.8-.7.4 0 .3.6.8.7zM328.4 171.2c-.4 0-.6-.1-.6-.4.4-.1.7 0 .6.4zM461.8 170.8c.1-.3.6-.4.8-.1-.1.2-.6.3-.8.1zM356.6 170.6c0-.5.4-.3.1-.8.4 0 .5.4.6.7-.1.1-.3.2-.7.1zM487 170.4c-.4 0-.3-.5-.3-.8.5-.1.5.7.3.8zM455 169.4c.6-.2.2.7.7.6-.2.6-.7-.1-.7-.6zM491.8 170.1c-.1-.1-.2-.3-.1-.6.2-.2.5.1 1 0 0 .5-.6.4-.9.6zM362.1 170.1c-.3-.1-1 .2-.8-.3.2 0 .4 0 .4.1.2 0 .1-.3.1-.4.3.1.3.3.3.6zM488 169.7c0 .2-.3.1-.4.1-.1-.2-.2-.4-.1-.7.3 0 .3.4.5.6zM369.3 169.5h-.4c-.2-.3-.4-.6-.4-1 .2-.1.4-.2.7-.1.3.4-.2.7.1 1.1zM482.7 168.7c-.6-.1-.9-.8-.7-1.3.6-.1.9.2 1.1.4 0 .5-.5.4-.4.9zM470.9 167.8c.3.1.5.2.6.6-.4.3-.9-.1-.6-.6zM457.4 168.3c0-.4.9-.6 1.1-.3.1.4-1 .4-1.1.3zM495.2 167.7c-.2 0-.2-.2-.4-.3.1-.5.4 0 1-.1.2.5-.7 0-.6.4zM497 167.4c0 .2-1 .3-.8-.1.4-.1.5.1.8.1zM490.3 167.6c-.2-.3-.2-.7-.3-1 .1-.1.3-.2.6-.1.2.3-.7 1.2.4.8-.1.3-.4.3-.7.3zM450 167.4c-.1-.6.4-.6.8-.6 0 .5-.3.7-.8.6zM451.5 167c.1-.3.9-.7.8 0-.2.3-.4 0-.8 0zM387.9 166.7c.1-.3.7-.1 1-.1-.2.2-.7.4-1 .1zM364.6 166.6c-.2-.1-.4-.2-.7-.1 0-.8.7-.3.7.1zM451.4 166.4c-.5.1-.2-.8.1-.7.1.4-.2.4-.1.7zM441 166.3c.2-.5.8 0 1-.3.4.4-.8.4-1 .3zM427.8 165.9h-.6c.1-.3-.3-.3-.1-.7.2 0 .4 0 .4-.1.3.1.3.4.3.8zM430 165.6c0-.4.2-.5.6-.4.1.3-.2.4-.6.4zM406.3 165.5c-.3-.3-.9-.7-.4-1.1.3 0 .2.4.6.3-.2.3 0 .5-.2.8zM433.4 165.2c0 .3-.6.1-.7 0 .1-.5.5-.2.7 0zM480.4 165.2v-.4c.2 0 .7-.1.6.3-.1 0-.3.1-.6.1zM463.9 165.2c-.4-.2.1-.8.4-.7.2.5-.4.3-.4.7zM459.4 165.2c.2-.3.2-.7.8-.6 0 .5-.4.5-.8.6zM458 165c-.2-.7.8-.6 1.1-.4-.1.4-.7.3-1.1.4zM381.9 164.9c-.1-.4.1-.5.1-.8.2 0 .1.4.1.6.2-.2.3-.1.3.1-.2-.1-.2.1-.5.1zM445.8 164.6c-.4 0-.8.1-1-.1 0-.2 1.1-.4 1 .1zM447.5 164.3c-.3.4-1 0-1.3-.1.3-.4 1.1-.1 1.3.1zM354.9 164.2h-.4c-.1-.3.1-.4.1-.6.3.1.4.3.3.6zM466.5 163.3c0-.3.4-.3.7-.3 0 .6-.3.4-.7.3zM475.1 162.5c.6-.1 1 .1 1 .6-.5.3-.8-.3-1-.6zM465.4 163.1c-.2 0-.1-.3-.1-.4.4.1.4-.2.7-.1.1.4-.5.1-.6.5zM476.9 162.9c-.4-.4.7-.9 1-.6-.1.8-.8 0-1 .6zM461.4 162.8v-.4h.7c-.2.2-.3.4-.7.4zM444.1 161.5c.9-.1 1 .3 1.8.6-.2 1.4-1.6.1-1.8-.6zM368.8 162.6c-.2.3-1 .1-.8-.4.3.1.6.2.8.4zM456.4 162.4c0 .2-.9.2-.8 0-.1-.6.5.1.8 0zM410.7 162.2c-.2-.4.8-.7.7-.1-.4-.1-.3.2-.7.1zM450.4 162.1c-.5-.1-1.4.3-1.1-.6.3.3 1.2-.1 1.1.6zM471.6 161.4c0-.3.4-.2.4-.4.5.2-.2.8-.4.4zM442 161.4c-.3 0-.5 0-.7-.1 0-.5.8-.4.7.1zM366.2 161.2c-.3.4-1-.1-1-.4.5 0 .7.3 1 .4zM374.5 160.4c-.2-.2-.5-.4-.4-.8.4-.1.3.4.4.8zM393.7 160.3c-.7-.7.9-.9 1.3-.6-.3.5-1 .4-1.3.6zM452.4 159.6c.2.2.6.1 1 .1-.3.4-1.1.4-1-.1zM416 159.7c.3-.3-.2-.4-.1-.8.2.2.6.3.7.7-.2.1-.3.1-.6.1zM484.5 159c0-.3.2-.3.1-.6.3.1.2.6.8.4-.2.5-.3.1-.9.2zM462.8 158.7c.4-.1.5.3 1 .1-.3.3-1.1.6-1-.1zM434.8 159.1c-.3-.2-.3-.5-.6-.7.4-.5.4.4.8.3.1.2-.1.2-.2.4zM484.2 157.9c-.3.5-.3.6-.4 1.1-.3-.4-.6-.6-1.1-.7.1-.4-.2-.4-.1-.7.3 0 .3-.2.6-.1-.4.5.4.6 1 .4zM431.3 158.7c0 .3-.6.1-.8.1-.1-.6.5-.2.8-.1zM442.8 157.9c0-.4.9.1.8-.3.4.5-.4.3-.8.3zM430.6 157.7c-.7.2-.6-.4-1.3-.3.4-.4 1.2-.2 1.3.3zM336.7 157.7v-.6c.3.1.6.1.6.4-.2.2-.4.2-.6.2zM459.4 157.4c.2-.2.5-.3.8-.3.1.7-.5.4-.8.3zM421.5 157.4h-.6c-.1-.4.8-.6.6 0zM337.1 157c0-.6.4-.4.7-.3 0 .4-.3.3-.7.3zM332.6 156.6c0-.3.6-.1.7 0-.1.5-.5.2-.7 0zM328.4 156.2h.6c.1.5-.7.5-.6 0zM462.8 156.3c.2-.2 1-.3 1.1-.1-.3.3-.6.2-1.1.1zM494.8 156c-.3 0-.5 0-.7-.1 0-.4.7-.3.7.1zM425 156c-.4-.2-.4-.7-.4-1.3h.7c-.1.6-.6.8-.3 1.3zM430.7 155.9v-.4c.3-.1.4.1.6.1 0 .3-.2.3-.6.3zM487 155.5c-.5.3-.3-.3-.6-.7.7-.2.3.6.6.7zM445.9 155.2c0-.2.2-.4 0-.4.1-.3.7-.1 1-.1.1.6-.6.8-1 .5zM464.9 155.1c-.3.6-.5-.7-.1-.7.6-.2-.4.7.1.7zM360.4 155.2c-.5.1-.4-.3-.8-.3.1-.5.9-.2.8.3zM477.2 155.1c-.1 0-.1-.1-.3-.1v-.3h.7c.1.3-.4.1-.4.4zM476.4 154.4c0-.4.1-.6.4-.6 0 .4-.1.6-.4.6zM452.8 153.7c.4-.1.4.2.7.1 0 .4-.8.4-.7-.1zM432 153.4c.3.1.8-.2.7.3-.2.2-.8.2-.7-.3zM425.3 153.4c-.6 0-1.1-.2-1-.8.5 0 1.1-.5 1.5.3-.1.2-.7 0-.5.5zM373.1 153c-.3 1.1-1.3-.6 0 0zM356.5 153.4v-.4c.3-.1.4.1.6.1-.1.2-.3.3-.6.3zM471 152.8c.3-.3 1.1.3 1.4-.4.5.7-.9.8-1.4.4zM489 152.8c.2-.3.7-.8 1-.6.1.7-.5.6-1 .6zM381.8 152.8c-.5 0-.7-.2-.7-.6.4 0 .6.2.7.6zM476.5 152.4c-.2.5-.6-.4-.3-.6.6.1-.1.5.3.6zM365.9 152.4c-.3.1-.4-.1-.6-.1.1-.3.2-.5.7-.4.1.2-.1.2-.1.5zM446.6 151.6c.1-.6-.4-.5-.4-1.3.5.1.8-.3 1.1 0-.3 0-.6 1 0 1 0 .3-.3.3-.7.3zM477.1 151.4h-.8c0-.3.9-.6.8 0zM467 150.9c.4 0 .7 0 .7.4-.4.1-.8.2-.7-.4zM445.9 150.6c-.5-.2-.7-.7-.8-1.3.4.3.7.6.8 1.3zM401 150c-.3-.3-.4-.8.3-.7.1.4-.5.2-.3.7zM427.5 149.7c-.4 0-.9-.5-.6-.8.5 0 .7.3.6.8zM402 149.2c.5.5.7-.2 1.1.1 0 .4-1.3.5-1.1-.1zM464.6 149.2c-.4 0-.9.1-.8-.4.2.1.8-.1.8.4zM469.1 148.5c.3-.4 0-1 0-1.4.3-.3 1-.1 1.5-.1-.1.2-.2.3-.4.3.6.8 1.2.3 2.1.4-.2.2-.2.5.1.6-1.1.2-2.4 1.2-3.3.2zM447.5 148.7v-.6c.4.2.6-.2 1 .1 0 .7-.6.5-1 .5zM451.4 147.9c.2-.1.6.4.7 0 .4.3-1 1-.7 0zM469.2 146.8c-.5-.1-.2-.7 0-.8.3 0 .1.7 0 .8zM426.1 146.4c-.2-.1-.5-.3-.3-.6.5-.1.5.4.3.6zM495.6 145.4c-.3 0-.1-.6-.1-.8.3-.1.3.6.1.8zM475.8 145.2c0-.4.1-.6.4-.6.1.4 0 .7-.4.6zM451.5 145c-.1.4-.5-.1-.7 0 0-.2.2-.3.6-.3 0 .1 0 .2.1.3zM497.3 144.4c.6.3.7-.4 1.3 0-.3.4-1.1.6-1.3 0zM496.3 144.1c-.5 0-.1-.2-.3-.7h.4c.2.4-.2.4-.1.7zM393.4 144c0-.6.7-.7 1.1-.6-.2.3-.5.6-1.1.6zM406.3 141.6c0-.8-.3-1.3-.6-1.8 2.2-1.2 3.5 2 5.8 2.1-.3.4-1 .4-1 1.1-1.1-.1-1.1 1.2-2.1.7-.8-.6-.9-1.8-2.1-2.1zM435.7 143.3h-.4v-.6c.3 0 .4.2.4.6zM482.4 142.7v-.6h.7c0 .4-.2.6-.7.6zM468.9 142.4c-.5.1-.3-.4-.6-.4 0-.3.5-.1.7-.1.1.2-.1.3-.1.5zM492.5 142c.1-.5 1-.5 1.3-.1-.2.5-.9.1-1.3.1zM419.4 142c-.6 0-1.1-.5-.7-1 .1.2.3 1 .7.4.3.1 0 .5 0 .6zM473.3 141.2h-.6c0-.2 0-.2-.1-.3.1-.4.8-.3.7.3zM436.9 140.6c.1-.3.1-.8.3-1.1.1.1.2.1.4.1.1.6-.1 1-.7 1zM376.6 140c0 .3-.6.1-.8.1.1-.6.4-.1.8-.1zM428.2 140c-.5 0 0-.4-.3-.4 0-.2.4-.1.6-.1.1.4-.3.3-.3.5zM483.2 139.8c-.3-.1-.5-.2-.6-.6.4-.3.6.2.6.6zM489 139.6c-.5.1-.3-.5-.8-.4.1-.4.8-.8 1.3-.4 0 .5-.5.4-.5.8zM424.4 139.6c-.5-.1-.2-.7 0-.8.6.2.1.5 0 .8zM390.3 139.5c-.3.4-.7-.2-1.1-.1.3-.5.7.1 1.1.1zM394.8 138.6c.5-.1.6.2.8.3 0 .5-1 .3-.8-.3zM414 138.8c0-.2.9-.3.7.1-.2.3-.4 0-.7-.1zM430.6 138.1c-.2 0-.1-.3-.1-.4.2-.1.4-.2.7-.1 0 .3-.6.1-.6.5zM465.3 137.7c-.3 0-.7 0-.8-.1-.1-.5.9-.5.8.1zM418 137.2c-.3 0-.5 0-.7-.1 0-.7.8-.6.7.1zM422.3 136.7c.5-.4.8 0 1.3-.4.1.6-.9.7-1.3.4zM478.2 136.5c-.8-.4.4-.6.6-.8.5.5-.9.2-.6.8zM439.5 136c.2-.1 1.1-.1 1.1.4-.3.2-1.4.3-1.1-.4zM415 135.7c-.4 0-.4-.3-.4-.6.5-.1.7.3.4.6zM387.2 135.4l-.6-.3c.3-.3-.3-.8 0-1.3.3 0 .7 0 .8.1-.6.4-.4 1-.2 1.5zM462.5 134.3h-.4c0-.4.3-.6.8-.6-.1.3-.6.1-.4.6zM419 134.1c-.4 0-.6-.4-.3-.7.3.1.3.4.3.7zM465.4 133.9c-.2.3-1.1.1-1.1-.1-.2-.6.6 0 .6-.4.4-.1-.1.7.3.6 0-.1.1-.1.2-.1zM456.9 134h-.4v-.6h.6c-.1.3-.3.3-.2.6zM445.2 133.3c0-.2 1-.3.8.1-.3.4-.4-.1-.8-.1zM451.1 133.4c-.6 0-.7-.4-.8-.8.6-.1.8.3.8.8zM449.6 133c-.6.1-.9-.2-1-.7.4-.3 1.1 0 1 .7zM475.9 132.9c-.2 0-.3-.2-.3-.6.3-.1.4.1.6.1 0 .2-.2.3-.3.5zM456.7 132.6c.3-.4.8-.2 1.1-.1 0 .4-.9.3-1.1.1zM487 132.5c-.1-.5.2-.5.6-.6 0 .4-.2.5-.6.6zM426.4 132.2c-.1-.4.6-.1.7-.4.4.2-.3.5-.7.4zM397.3 132.2c-.3-.2-.8-.2-.8-.6.5 0 .8.2.8.6zM489.1 131.9c-.3.1-.4-.1-.6-.1.1-.5.4-.8.6-1.1.4.3-.3.8 0 1.2zM437.5 131.9c-.2-.1-.1-.4-.6-.3 0-.7.8-.4.6.3zM417.1 131.2c-.4 0-.7-.4-.4-.7.4 0 .4.3.4.7zM406.3 130.8c-.3-.2-.6-.5-.6-1 .6 0 .6.5.6 1zM439.6 129.9c-.4 0-.6-.2-.6-.7.4.1.6.3.6.7zM383.2 129.7c.1-.4.4-.2.7-.1 0 .3-.6.2-.7.1zM473.1 129.1c.1-.3.7-.1 1-.1 0 .4-.8.3-1 .1zM428.9 128.4c.1-.2.6-.2.8-.3.1.4-.6.5-.8.3zM455.9 126.6c.4 0 .8-.1 1 .1 0 .4-1.2.4-1-.1zM385.8 126.3c-.4.1-.6-.1-.6-.6.2.2.8 0 .6.6zM475.1 125.9h-.4c0-.4.1-.8.6-.8 0 .4-.2.4-.2.8zM411.7 125.7c-.4-.3.2-.6.1-1 .4.2-.1.8-.1 1zM469.1 125.4h-.3c0-.1-.1-.1-.1-.1v-.3c.1 0 .1-.1.1-.1h.3c0 .1.1.1.1.1v.3c-.1 0-.1.1-.1.1zM463.6 125.4c-.2 0-.3-.2-.3-.6.8.1.8-.1.8-.4.6-.1.1.6.1.8-.1.2-.6-.1-.6.2zM486.9 124.9c.1-.1.1-.2.1-.4.3.1.7.2.7.6-.2.2-.5-.1-.8-.2zM404.5 124.5c.4-.4 1.3.2 1 .6-.3.1-1-.2-1-.6zM435.4 125h-.7c0-.3.3-.4.4-.6.2.1.3.3.3.6zM395.4 125c-.5.1-.7-.2-1.1-.1 0-.6 1.2-.6 1.1.1zM420.9 124.3c-.1-.3.8-.5.7 0-.3 0-.4.3-.7 0zM449.3 124.3c-.4 0-.5-.4-.6-.7.3.2.6.3.6.7zM375.9 124.2h-.7c-.1-.4.2-.4.3-.7.1.2.5.2.4.7zM479.9 124c-.2 0-.3-.2-.3-.6.5 0 .4-.2.8 0 .2.6-.4.4-.5.6zM459.9 123.5h-.4c-.1-.2.1-.3.3-.3.1-.5-.4-.4-.4-.8.2.1.5.1.7.3.1.4-.2.4-.2.8zM474.5 123.2c-.6-.1-.1-.9.3-.4 0 .2-.2.2-.3.4zM442.4 122.4c.2-.4.6.5 1 0 .6.5-1.3.9-1 0zM417.7 122.1c-.1-.6.4-.4.7-.6.1.5-.3.6-.7.6zM427.4 121.9c.1-.3.4-.5.8-.6.1.6-.5.5-.8.6zM342 121.2c.3-.1.3.3.7.1.1.4-.9.6-.7-.1zM444.2 121c.4 0 .8 0 .7.4-.4.1-.8.2-.7-.4zM395.5 121.4c-.3-.2-.3-1.3.3-1.1-.2.5-.1.6-.3 1.1zM421.2 121c-.2-.1-.1-.4-.6-.3.1-.6 1.1-.2.6.3zM387 120.5c-.3 0-.3-.2-.6-.1 0-.2.1-.2.1-.4h.3c0 .2.2.3.2.5zM376.3 120.4h-.6c-.1-.6.7-.6.6 0zM435.9 119.5c.2-.1.8.2.8-.1.5.3-.9 1-.8.1zM398 119.7c-.6-.2 0-.5 0-.8.4 0 .2.7 0 .8zM469.8 119.3c0-.2 0-.4-.1-.4 0-.3.5-.1.7-.1-.1.3-.3.5-.6.5zM481.1 119c-.7.1-.9-.4-.8-1 .5.1.7.6.8 1zM466.5 118.8c-.1.3-.7.1-.6-.3.2-.2.7-.1.7-.4.8.4-.6.5-.1.7zM433.1 119c-.4 0-.9.1-.8-.4.1.3 1-.2.8.4zM475 118.6c-.2-.4.8-.7.7-.1-.2 0-.4.1-.7.1zM385.4 118.6c-.3.1-.3-.3-.7-.1 0-.5.8-.5.7.1zM491 118c-.4.2-.2-.9.1-.8 0 .3 0 .6-.1.8zM477.9 117.6h-.4c-.2-.3.4-.5 0-.6.2-.4.6.2.4.6zM410.4 117.3c-.1.5-1 0-1.4 0 .4-.3 1 0 1.4 0zM475.8 117.2c.2-.3.5-.2.8-.1 0 .4-.5.1-.8.1zM390.6 117.3v-.6c.4-.1.4.2.8.1-.1.4-.4.5-.8.5zM467.1 117.2c-.1-.5-.5-.8-.6-1.3.1-.1.4-.1.4-.3.2.4.5.6 1 .7-.1.4-.1 1-.8.9zM469.9 117c.2-.4 0-.3 0-.8.2 0 .2 0 .3-.1.3.1.4.4.4.7-.3 0-.3.2-.7.2zM426 117c-.5 0-.9 0-.8-.6.5.3.6.3.8-.3.4.2-.1.7 0 .9zM458.3 116.7c.3-.5 0-.3-.3-.4.2-.6.7 0 1.1 0-.1.6-.3.5-.8.4zM419.4 116.2c-.5.1-.3-.4-.6-.4.4-.5.4.4.8 0 .1.3-.2.2-.2.4zM350.9 116.2v-.4c.3-.1.4.1.6.1-.1.2-.3.3-.6.3zM496.9 115.5c0-.4.3-.4.6-.4-.1.3-.4.6-.6.4zM464 115.6c.3-.4.7-.6 1.1-.8-.2.4-.4.8-1.1.8zM477.9 115.1c-.3.4-1.4 0-.8-.4.2.2.4.3.8.4zM402.5 114.4v-.6c.2-.1.4-.2.7-.1.1.5-.2.7-.7.7zM465.1 114.2c-.1-.3.9-.7.8-.1-.2 0-.3.2-.8.1zM463.6 114.1h-.4c-.1-.5.3-.6.7-.6 0 .3-.4.2-.3.6zM438.8 113.7c.1-.1.2-.3.1-.6.6-.1.5.7-.1.6zM468.6 113.4c-.3.2-.5-.4-.6 0-.2 0-.1-.4-.1-.6.3.2.2 0 .6 0 0 .3.2.3.1.6zM476.1 111.8c.5-.1.5.2 1 .1 0 .6-1.2.7-1-.1zM470.9 112.2c-.4.1-.4-.4-.7-.4.2-.4.8.1.7.4zM442.8 112.2c-.5-.1.3-1.1.4-1.5.4.5-.5.9-.4 1.5zM472.3 111.5c.4.1.6.1 1 0 0 .4-1.2.8-1 0zM460.9 111.8h-.4c0-.4 0-.8.4-.7v.7zM463.5 111.7c-.4 0-.8-.1-.8-.6.1.3.9 0 .8.6zM464 109.3c-.4-.1-.7-.7-.4-1 .4 0 .4.6.4 1zM446.6 108.6c.4 0 .6.1.6.4-.3.3-.6 0-.6-.4zM462.3 108.6c-.3 0-.3-.2-.6-.1.1-.1.1-.2.1-.4h.4c.1.1.1.3.1.5zM487.9 108.5c.3-.6 1-.3 1.5-.3-.3.2-1.1.1-1.5.3zM428.9 108.5c0-.3.1-.7.6-.6.1.4-.1.6-.6.6zM489.6 108c0-.7.5-.2.8-.4-.1.4-.5.3-.8.4zM410.8 107.8c-.4 0-.3-.7-.1-.8.2.1.3.6.1.8zM315.8 107.3c.1-.5-.1-.7-.1-1 .4-.1.3.4.8.3v.6c-.2.1-.4.2-.7.1zM478.1 106.5c0-.2.9-.3.7.1-.3.3-.5 0-.7-.1zM463.2 106.2c.2-.3.4.1.7.1 0 .5-.8.3-.7-.1zM464.4 106.5c0-.3 0-.7.1-.8.3.2 0 .9.7.7.5.2-.5.1-.8.1zM485.6 106.4c-.5.1-.3-.5-.6-.6.2-.3.7.2.6.6zM447.3 105.8c.4.4.9 0 1.3-.1 0 .6-1.3 1.1-1.3.1zM478.6 105.2h-.6c0-.3.1-.7.6-.6v.6zM459.9 104.7c.3 0 .4.2.8.1.1.4-.8.3-.8-.1zM455.6 104.8c-.5 0-.7-.2-.7-.7.3.2.5.4.7.7zM449.3 104.8c-.4.1-.5-.3-1-.1.1-.6 1-.5 1 .1zM393.6 104.5c0-.2.2-.2.3-.4.5.1 0 .9-.3.4zM442.8 104.1c0 .3-.5.1-.7.1-.2-.3.4-.5 0-.6.2-.4.6.3.3.4.1.1.3.1.4.1zM338.5 104c-.3 0-.3-.4-.3-.7.5-.1.5.5.3.7zM485.6 103.7c-.3.1-.4-.1-.6-.1 0-.3.2-.3.1-.6.6-.1.6.3.5.7zM483 101.3c-.3.4-.9-.2-.7-.7h.6c0 .1-.2.1-.3.1-.1.4.2.5.4.6zM444.4 99.9c.3.1.8-.2.7.3-.2.2-.8.1-.7-.3zM485.4 99.8v-.4c.2 0 .7-.1.6.3-.3-.1-.4.1-.6.1zM436.1 99.8c0-.5.8-.8.8-.1-.1.1-.5.1-.8.1zM483.7 99.5c0-.4.4-.5.7-.6-.1.4-.4.5-.7.6zM487.2 93.9c.4.2.9-.2 1.4-.1.6 1.3-1.3.9-1.4.1zM442.7 93.3c0 .2-.4.1-.6.1 0-.3-.2-.3-.1-.6h.6c-.1.3-.1.5.1.5zM485.1 93.3c-.4 0-.3-.5-.3-.8.5-.2.2.5.3.8zM375.9 92.9c-.4-.3-1.2 0-1-.8.4.1 1 .2 1 .8zM453.5 92.2h.8c-.3.3 0 .3.4.3-.2.4-1.2.3-1.2-.3zM469.8 92.2c.3-.2.5-.4.8-.4-.1.5-.3.5-.8.4zM489 91.3c.1-.3-.3-.3-.1-.7.5-.1.2.5.4.6.1-.1.2-.1.4-.1 0 .3-.3.3-.7.2zM476.5 90.8c0-.6.3-.8.8-.7-.1.4-.2.8-.8.7zM437.9 90.8c-.2-.5.9-.7.8-.1-.1.1-.4.1-.8.1zM420.6 90.5c-.4.1-.4-.2-.7-.3.1-.3.4-.4.7-.4.1.3-.2.3-.4.3 0 .3.7-.1.4.4zM416.4 90.5c-.3 0-.7 0-.8-.1 0-.3 1-.4.8.1zM493.6 89.2c-.3 0-.7-.1-.6-.6.5 0 .7.2.6.6zM486.6 88.8c-.4-.1-.6-.4-.6-.8.7-.2.4.5.6.8zM475.8 88.5h-.6v-.6c.4.1.5.3.6.6zM466.1 88.4c-.3 0-.1-.6 0-.7.3 0 .3.2.6.1.1.5-.5.3-.6.6zM479.3 87.7c.2-.7-.5-.4-.4-1 .4.1.3-.3.4-.4.2.1.4.2.7.1.3.6 0 1.3-.7 1.3zM488.6 87.4V87c.2-.1.3.1.3.3.1-.1.2-.1.4-.1.1.4-.5.1-.7.2zM449.8 87c0 .3-.5 0-.6 0 .1-.1.2-.3 0-.3 0-.2.3-.1.3-.3.6 0 .1.6.3.6zM348.1 87.1c0-.7.4-.1.8-.4-.1.3-.3.5-.8.4zM469.6 86.1c.2-.2.3-.6.7-.6 0 .5-.2.7-.7.6zM449.1 86.1c-.2-.2-.8 0-.7-.6.5 0 .7.2.7.6zM403.4 86.1c-.3 0-.3-.4-.3-.7.5-.1.5.5.3.7zM441.4 85.6c-.3.3-1.1-.1-1.5-.1.3-.7 1.2-.1 1.5.1zM418.5 84.7c0-.3-.3-.4 0-.7.2.2.1.6.7.4 0 .4-.3.4-.7.3zM493.1 83.9c.2 0 .4.2.1.3 0 .2.3.1.4.1-.1.6-.7.2-.5-.4zM436.2 83.6c.4.1.7.3.8.7-.3.3-.8-.1-.8-.7zM473.6 83.8c-.1-.5.2-.5.6-.6-.1.3-.3.5-.6.6zM456 82.9v-.8c.8 0 .6.1 1.4.1 0 .6-.6.8-1.4.7zM460.8 82.5c-.1.3-.8.1-1.1.1-.1-.7.8-.2 1.1-.1zM484 82.2c-.2-.2-.6-.3-.7-.7.3.1.7.2.7.7zM492.8 82.1c.3-.4.4-.9 1.1-.8 0 .6-.5.7-1.1.8zM476.2 80.9c-.4 0-.3-.8.1-.7.1.4 0 .6-.1.7zM480.6 80.5c-.5 0-.2-.7-.7-.7.2-.3.9.1.7.7zM467.9 80.2c-.4 0-.5-.2-.6-.6.5 0 .7.2.6.6zM468.8 80c-.4.1-.4-.3-.4-.7.4-.1.4.3.4.7zM431.7 79.4c0 .3-.6.1-.7 0 .1-.1 0-.5.4-.4-.2.2-.1.4.3.4zM409.7 79.3c0-.4.6-.3 1-.3-.2.3-.6.3-1 .3zM469.9 79h-.4c-.2-.4-.1-.4.1-.7.3 0 .3.3.3.7zM461.8 78.8v-.6c.2.2.7.5.8 0 .5.5-.5.5-.8.6zM485.2 78.4h-.6c.1-.1.1-.2.1-.4h.4c.1.1.1.3.1.4zM454.9 78.1c-.4 0-.5-.2-.4-.6.4.1.6.4.4.6zM334.3 78c-.2.4-.8-.1-.8-.4.3.1.6.2.8.4zM357.2 78v-.4c.2 0 .7-.1.6.3-.3-.1-.3.1-.6.1zM486.2 77.4c-.4 0-.8.1-1-.1 0-.4 1.2-.4 1 .1zM478.5 77h-.6c-.1-.5.7-.5.6 0zM423.6 76.2c.4-.4.7 0 1.4-.1-.2.6-1 .3-1.4.1zM490.3 75.9c.4.1.4-.2.7-.1 0 .5-.8.8-.7.1zM493.9 75.6c0-.4.9-.3.8.1-.2.4-.6.1-.8-.1zM468.4 75.9c-.2 0-.2-.1-.4-.1 0-.4.2-.5.6-.4 0 .2-.2.3-.2.5zM412.8 75.8c-.3-.2.1-.4 0-.8.4 0 .5.4.6.7-.3-.1-.4.1-.6.1zM475.8 75.5c-.1.3-.7.1-.8 0 0-.3.7-.1.8 0zM473 75.6c-.3-.7 1.1-.8 1-.1-.5-.1-.5.2-1 .1zM450 75.3h-.4c0-.4.1-.6.4-.6.2.3 0 .2 0 .6zM425.7 75.2c-.1-.5.6-.2.7-.1.1.2-.6.4-.7.1zM463.2 74.1c.1-.1.3-.2.6-.1 0 .2 0 .2.1.3-.8.6.5.1.4.6-.6.2-1.1-.1-1.1-.8zM494.2 74.8c-.5-.1-.6-.7-.6-1.4.4.3.6.7.6 1.4zM491.8 74.2v-.4c.2 0 .7-.1.6.3-.3-.1-.3.1-.6.1zM424.4 74.1c-.7 0-1.1-.3-1.3-.8.7 0 1.3.1 1.3.8zM440 73.9h-.7c-.1-.5.4-.2.7-.3v.3zM408.1 72.9c-.4 0-.7 0-.7-.4.3-.2.9-.1.7.4zM498.3 72.4c-.1.2-1.3.3-1.1-.1.5-.2.5.2 1.1.1zM376.8 72.2c-.1.3-1 .3-.7-.3.5-.1.5.3.7.3zM434.4 72.2c-.3-.2-.7-.2-.6-.7.4.1.7.2.6.7zM343.6 72.1c-.7.2-1.1-.4-.7-.8.5 0 .6.4.7.8zM474.1 71.8v-.3c.4 0 .3-.2.6 0v.3c-.3.3-.2 0-.6 0zM346.4 72c-.3 0-.4-.2-.7-.3.1-.3.9-.2.7.3zM470.3 70.4c0 .2-.3.1-.4.1 0-.7.1-.7-.1-1.1.3-.3.4 0 .7 0 .2.6-.4.9-.2 1zM475 70.3c-.4 0-.8-.1-.7-.6.1.3.9-.1.7.6zM484.4 68.6c.3.3.4-.1.8 0 .2.4-1 .4-.8 0zM398.9 68.7c-.5-.1-.1-.8.3-.8 0 .4-.4.4-.3.8zM475.2 67.9c.5-.1.6.1.7.4 1.7.1-.9.7-.7-.4zM445.2 68.3c-.4.1-.5-.2-.8-.3 0-.2.3-.1.3-.3.1 0 .1.2.1.3.2 0 .2 0 .3-.1.1 0 .1.1.1.1v.3zM498.3 67.9h-.4c-.2-.2-.2-.5-.1-.8.4.4.1-.2.6-.1-.3.4-.2.4-.1.9zM437.5 67.6c.2-.2.7-.4 1-.1-.3.4-.5.1-1 .1zM470.9 65.1c-.3.1-.4-.8-.1-.8.5-.2.2.7.1.8zM423.9 64.7c-.2.4-.8-.1-1-.1.2-.4.9-.2 1 .1zM475.5 64c-.4 0-.6-.1-.6-.4.4-.1.8-.1.6.4zM433.3 63.7c.1-.5.5-.2.7 0-.2.4-.5.2-.7 0zM353.3 63.8c0 .2-1.2.3-1-.1.4-.1.6.1 1 .1zM448.9 63.8c-.4 0-.6-.1-.6-.4.4 0 .6.1.6.4zM470.8 62.3c-.2-.1-.8 0-.7-.4h.6c0-.1-.1-.1-.1-.1.1-.5.4.4.2.5zM465.8 62.1c-.1.3-.6-.2-1.1 0 .4-.3.8-.2 1.1 0zM436.5 61.7c-.1-.4.3-.4.7-.4-.1.3-.4.4-.7.4zM439.6 61.6c-.5 0-.3-.9.3-.7.1.4-.4.2-.3.7zM499.8 61.2c-.4.1-.4-.2-.7-.3.1-.3.9-.2.7.3zM472.6 61.2c0-.4.4-.4.8-.4-.1.2-.3.4-.8.4zM394 60.7c-.2-.3-.7-.2-.7-.7.6-.1.9.5.7.7zM411.9 60.2c-.1.3-.9.1-1.3.1.3-.4.8-.5 1.3-.7.2.3-.4.5 0 .6zM467.9 60c-.2-.1-.5-.3-.4-.7.3 0 .3-.2.6-.1-.1.5-.4.3-.2.8zM439.9 59.7c-.4-.2-.6-1.1-.4-1.4.4.2.6 1.1.4 1.4zM469.8 59.2c.1-.7.8-.7 1.3-1-.2.6-.5 1.1-1.3 1zM457.8 59.2c-.3-.1-.7-.1-.7-.6.5 0 .8.1.7.6zM427.5 59c-.2-.2-.7-.1-.8-.3.1-.5.7 0 .8.3zM499.5 57.2c.6 0 .5.3 1.1.1 0 .5-1.1.4-1.1-.1zM434.3 56c.4-.2.6-.1 1.3-.1v.6c-.8-.1-1.3.5-1.3-.5zM487 56.2c-.2-.3-.7-.2-.7-.7.4.1.4-.2.7-.1 0 .4.3.5 0 .8zM432.6 55.4c.2-.2.4-.5.8-.4 0 .4-.5.7-.8.4zM484 53c-.1-.7.8-.6.8-.1-.3 0-.4.2-.8.1zM457.7 52.9c-.1-.4.8-.1 1-.1 0 .3-.9.3-1 .1zM497.4 51.3c-.5 0-.5-.4-.6-.8.7-.2 1 .4.6.8zM455.3 51.2c-.1.3-1 .2-.8-.3.4-.1.5.2.8.3zM414.9 50.8c.3.1 1 0 1 .4-.6 0-1 .3-1-.4zM335.7 49.5c-.1-.5 0-.9.3-1.1 1.1 0 1.5.7 2.2 1.1-.2 1.1-2 .4-2.5 0zM479 49.9c-.3-.3-.1-1.4.6-1.3-.4.3-.6.7-.6 1.3zM354.1 49.9c-.5.1-.5-.2-1-.1-.1-.5.4-.4.6-.7.3.1.4.4.4.8zM473 49.8c-.1-.4.3-.4.7-.4-.1.2-.4.3-.7.4zM360.7 49.4c.3-.1.3.3.7.1 0 .4-.8.4-.7-.1zM463.7 49.6c-.4 0-.5-.2-.6-.6.4.1.6.3.6.6zM488.6 49.4h-.6c-.1-.6.7-.6.6 0zM478.1 49.2c0 .2-.4.1-.6.1.1-.3-.2-.8.3-.7-.2.3.1.3-.1.6h.4zM486.2 48.8c0-.3.2-.4.3-.7.3.1.1.9-.3.7zM439.9 48.8c-.3 0-.4-.2-.7-.3 0-.4.7-.1.7.3zM409.7 48.2v-.6c.4-.1.4.2.7.3-.1.3-.4.4-.7.3zM421.6 47.3c.4 0 .9 0 .8.4-.1.1-.8 0-.8-.4zM489.6 46.4c.3-.5.2.5.7.3-.3.6-.6 0-.7-.3zM434.8 46.1c-.9.1-.8-.9.1-.7.1.4 0 .6-.1.7zM431.3 44.7c.3.1.8-.2.7.3-.2.2-.7.1-.7-.3zM415.3 44.4c.3.1.4.3.8.3-.1.6-.8.1-.8-.3zM357.8 44.9c-.5.1-.8-.1-.8-.6.4 0 .7.2.8.6zM442.1 43h.8c0 .3-.4.3-.6.4.3.2.7.3 1.1.3-.2.6-1.4.2-1.3-.7zM439.9 43.5c-.3 0-.3-.2-.6-.1 0-.4.2-.5.6-.6.2.1.2.5 0 .7zM394 42.9h-.6c.1-.3.2-.7.6-.7v.7zM474.7 42.8h-.6c-.1-.3.1-.4.1-.6.4 0 .5.2.5.6zM435.2 42.8c.1-.3.2-.7.6-.7-.1.3-.1.7-.6.7zM416.2 41.4c0-.2 0-.2-.1-.3.1-.2.4-.3.7-.3-.1.4-.3.5-.6.6zM484.4 41.1c-.7.1-1.3-.4-1-.8.4.4.8.2 1 .8zM418.5 40.1c.3.4.2-.7.8-.4v.6c-.6-.2-.6.2-.6.7-.3-.1-.5-.5-.4-1 .3-.1.4.1.2.1zM472.9 40.8c-.4 0-.4-.3-.4-.6.3.1.6.1.6.4-.2 0-.2.1-.2.2zM484.2 38.8h-.4v-.6c.5-.1.5.3.4.6zM412.2 37.9c-.6.1-.6-.3-.7-.7.2.2.7.2.7.7zM442.1 35.7c0-.5.5-.4 1-.4 0 .5-.6.3-1 .4zM431.9 35.2c.5-.3.9-.4 1.7-.6-.3.6-1.1.5-1.7.6zM441.7 34.5c-.6-.4-1.1-.4 0-.6v.6zM443.1 34.1c-.1.4-.6 0-.8 0 0-.5.5-.1.8 0zM370.7 34.2h-.4c0-.5.5-.3.6-.7.4.2-.4.3-.2.7zM326.3 33.4c-.3.4-1.1 0-1.5 0 .2-.6 1 0 1.5 0zM462.5 33.2h-.6c-.1-.5.7-.5.6 0zM404.4 33.1c-.1-.4.2-.4.1-.8.2 0 .4.2.4 0 .4.2 0 .9-.5.8zM393.8 32.1c-.3-.8-1-.2-1.3-.8.8-.2 1.8.1 1.3.8zM450.4 31.4c-.4 0-.9.1-1.1-.1 0-.2 1.2-.4 1.1.1zM439.6 30.3c.2-.7.5-.2 1 0-.3.4-.7.2-1 0zM406.3 28c-.4 0-.7-.3-.4-.6.4 0 .5.3.4.6zM473.4 27c0-.2 0-.2-.1-.3.2-.3.5.1.8-.1.1.5-.3.5-.7.4zM453.5 26.9c-.7.1-.3-1 .3-.8.1.4-.2.6-.3.8zM498.7 26.5c0-.4.8-.3.7.1-.3.3-.6.1-.7-.1zM498.8 25.8c.1-.7.3-.2.7-.1-.1.4-.2 0-.7.1zM420.2 23.3c0 .2-.4.1-.6.1 0-.2.6-.4.1-.6.6-.5.4.5.5.5zM395.2 23.3c-.6 0-.8-.4-1.5-.3.1-.4-.2-.4-.1-.8.7.3 1.1.8 2 .3-.1.2-.3.5-.4.8zM396.1 22.6c-.1-.5 1.1-.5.6-1 .2-.3.3.1.7-.1-.3.5-.6 1-1.3 1.1zM455.6 21.6h-.7c-.1-.4.9-.8.7 0zM476.4 21c.7-.7 1.5.1 0 0zM425.4 20c-.4-.2.1-.6.4-.6.2.5-.3.4-.4.6zM496.3 19.2c-.2-.4 1-.4.8 0-.1.1-.7.3-.8 0zM468.5 17.8c.4-.1 1.4-.3 1.5.1-.2.5-1.5.7-1.5-.1zM485.8 18.1c0-.3.4-.3.7-.3.1.5-.5.5-.7.3zM467.1 17.6c-.5.2-.4-.9.1-.6.1.3-.1.4-.1.6zM347.4 17.2h-.4c-.1-.5.3-.5.4-.8.4.1-.1.6 0 .8zM465.3 16.7h-.6c.1-.3-.3-.3-.1-.7.2.2.6.2.7.7zM357.5 15.1c0-.6.5-.4.7-.1-.1.4-.4.2-.7.1zM495 15c-.2-.7.8-.8.7-.1-.1 0-.3.1-.7.1zM448.6 12.9c.4-.1.3-.7.7-.7v.7c-.4 0-.5.2-.7 0zM416.6 10.2c.5.2 1.3.1 1.4.7-.3.1-1.5.1-1.4-.7zM418.7 8.4c.1.3.4.4.4.7-.3.3-.8-.4-.4-.7zM447.9 8.1c-.4 0-.3-.6-.6-.7.3-.4.6.3.6.7zM432.3 7.4h-.7c0-.4.6-.6.8-.4 0 .1-.1.2-.1.4zM495.6 7.1c0-.4.3-.4.7-.4.1.4-.3.4-.7.4zM441.8 7.1c-.2-.1-.4-.2-.4-.6.1-.1.3-.2.6-.1 0 .3 0 .5-.2.7zM402.1 3.7c-.1-.5.2-.6.7-.6-.2.3-.3.6-.7.6zM449 3.5c-.1-.1-.3-.2-.3 0-.6-.1 0-.7-.7-.6.2-.6-.6-.3-.4-1 .3.3.6.3 1 .1.1.6.5.7.4 1.5zM359.7 172.3h-.1c-.6-.4-.8-1.3-1.4-1.7.6-.3 2-1.3 2.5-.4-.7-.1-1.2.1-1.4.6.2.7.9.6 1.5.6-.2.5-1 .3-1.3.7.1.1.2.1.2.2zM453.1 170.5c0 .5-.5.6-1.1.6.2-.5-.4-.3-.3-.7.4 0 .7 0 .6.4.1-.1.7-.2.3-.3-.1-.4.1.2.5 0zM359.6 169.5c-.4 0 .2-.2 0-.6-.1.4-.5.1-.6.3-.1-.3-.6-.1-.6-.6.6-.1.8.8 1 0 .3 0 .1.5.4.6 0 .2-.2.1-.2.3zM408.4 166.3c-.6.3-1.4-.3-1.8-.6.1-.4.4.2.8 0 0 .6.6.5 1 .6zM388.5 165.9c0 .2 0 .4.1.4 0 .2-.4.1-.6.1.2-.2.2-.5-.1-.6 0-.5.6.3.6-.1.2.1.1.2 0 .2zM387.8 164.9c.2-.3.6-.3 1-.4 0 .3.2.4.1.8-.9-.3-1.7.2-1.8-.8.2.4.4 0 .7.4zM397.1 164.3c-.1-.4-.5-.7-.3-1.5.4.2.7.1 1 .4.1.4-.3.5-.1 1-.3 0-.6-.1-.6.1zM499.3 163.6c0 .2-.4.5-.3 0-.7.2-2.2.8-2.4-.1.3.3 1.8.3 1.5-.1.4-.5.7.3 1.2.2zM331.1 163.1c.1.5-.7.3-.8.1.1-.1.3-.1.8-.1zM335.2 161.4c.5.5-.2.1-.1.6-.4 0-.5-.4-.6-.7-.4-.5.4.7.7.1zM411.9 158.4c-.6-.1-.4.4-1 .3-.1-.3-.2-.5-.3-.8.5-.1.2.5.4.6.4-.3.7-.6 1.1-.8.1.3-.4.2-.2.7zM359 158.2c.2-.3.2-.7.7-.6l-.3.6c.2 0 .4 0 .4-.1.4.2-.5.2-.8.1zM453.5 152.5c.1-.1.3-.2.4-.3 0-.1-.1-.1-.1-.3-.3 0-.4.1-.4.4-.4.1-.3-.4-.7-.3.6-.7.6-.4 1.8-.4-.1.7.9.4 1 .8.3-.1-.2-.2.1-.4h.7c-.6.6.3 0 .7 0-.7 1.9-2.6-.1-3.5.5zM366.9 148.2c-.5.4-1-.4-1.3-.7.4-.3.6.8 1.3.7zM424 146.9c0 .4-.1.6-.4.6-.1-.4.3-.4 0-.7.1-.5 0 .4.4.1zM488.3 143c-.1.1-1.2-.1-1-.7.2 0 .2 0 .3-.1.3.1.3.2.1.4.3.1.3-.2.3-.4.4.1.2.4.1.7 0 .1.1.1.2.1zM424.2 142.9c.1 0 .1-.1.1-.1.4.5-.3.1-.7.1 0-.2.2-.3.6-.3v.3zM450.5 140.5c-.1-.5.1-.7.3-1 .1-.1.2 1.1-.3 1zM437.2 138.8c-.4 0 .2-.2 0-.6.4-.1.4.2.8.1.1.4-.4.7.1.8-.1.4-.6-.1-.4-.4 0 .6-1.5.6-1.5 0 .7-.2.7.4 1.1-.1-.1 0-.1.1-.1.2zM475.1 139.1c-.3-.2-.7-.4-.6-1 .4.6.5.6 1 .1.1.5-.6.2-.4.9zM371.9 138.9c-.4-.1-.7-.3-.8-.7.3.2.8.2.8.7zM447.9 137.2c-.2.7-.7 1-1.5.7.7.3.6-1.1 1.5-.7zM490.3 132.6c-.3-.1-.3-.5-.7-.6.1-.2.3-.4.4-.7.5.5-.3.7.3 1.3zM427.8 127.8c-.2-.2-.5-.4-.4-1 .6-.3 1.6-.2 2-.7.5.7 1.1-.3 2.1 0-.1.8-1.5.8-1.5 1.3-.6.1-.9-.2-1.5-.1-.4.4-.7.8-1.3 1-.5-.5.2-.7.6-.5zM481.8 122.9c0-.1.1-.1.1-.1.4-.1-.3-1.4.6-1.1-.5 0 .1 1.3-.7 1.2zM423.2 122.1c-.2-.1.1-.2 0-.4h.7c0 .4-.7.1-.7.4zM470.6 114.8c-.6-.1-1.2-.3-1.8-.4.1-.5.4-.2.1-.7.3.4 1.5.6 1.8.6.5 0-.3.1-.1.5zM422.6 111.4c.2.9-1.2-.2-1.4-.6.4-.3 1 1 1.4.6zM487.5 108.5h-.7c.4-.8.9-.7 1.4-1.3-.4.4.2.1.1.6-.5-.4-.6.4-.8.7zM457.7 104.8c.6-.1.8 0 1.1-.6.3.8-.7.9-1.1.6zM369.1 102.4c-.3.7-.9.2-1.3 0 .5-.3.6.3 1.3 0zM482.7 99.8c-.3-.1.2-.7-.3-.8-.6.3.3 1.3-.6 1.4.2-.6-.1-1.1.1-1.7h.7c.3.4.4.8.1 1.1zM477.8 97.8c-.1.3-.3-.4-.8-.1 0-.3.4-.3.7-.3-.1.2-.1.4.1.4zM400.3 92.7c.1.4.4-.2.8 0-.2.5-1.3.8-1.4 0 .7.3.5-.4.7-.6.4 0 .2.1.1.3h.4c.5.3-.6.1-.6.3zM493.9 88.1s-1 .5-.8-.3c.2.2.6.1.8.3zM474.5 76.5c.3 0 .3-.5.7-.4-.2.2-.3.6-.7.6-.1-.2-.4-.4-.1-.7.2-.1.1.2.1.5zM443 72.1c0 .5-.3.1-.7-.1 0-.3.5 0 .6 0v-.7c0-.1-.4-.2-.6 0-.4-.1.4-.4.4-.6.4-.1.3.3.6.3-.4.2-.1.4-.3.8.3 0 .4-.1.4-.4 1.6.7 2.5 2.1 4.1 2.8-.1.6-.9.5-1.4.7-.2-.3 0-.2 0-.6-.4-.1-.3.4-.8.3-.1-1-.8-.5-1.1-1.1-.3.1-.5.4-.7.1.1-.2.2-.3.4-.3 0-.3-.2-.3-.1-.6-1.2.3.1-.1-.8-.6zM424.7 73.5c.3-.8 1.2-1 .8-1.7.7.5-.2 1.5-.8 1.7zM492.2 70.6c-.4.3-.1.9.3 1.1.5.2.1-.5.6-.3-.4 1.3-2.1-.6-.9-.8zM465.4 71.7c0 .3-.5.1-.7.1.3-1.5-.2-.1.7-.1zM468.5 71c-.3 1-1-.3-.7-.6.5.1-.1.9.7.6zM481.4 43.7c.5-.2 1.1.5 1.1-.1.5.4-1.1.9-1.1.1zM430.2 33.4c.1-.4-.2-.4-.1-.8.4 0 .2.5.4.7.1-.1.3-.1.3-.3.2 0-.2.6-.6.4zM383.3 31.1c.4.4.1.4 1 .4.1.4-.2.4-.1.8-.7 0-1.1-.1-2-.4.1-.9.7-.4 1.1-1 .2.1.1.2 0 .2zM427.4 18.1c-.3.2-1.4.3-1.1-.4.1.3.9.3.6 0 .1-.4.7-.1.5.4zM395.8 2.6c.3.3-.8 0-1-.1.3-.5.6.2 1 .1zM395.9 114.1c.1-.5 1.5-.9 1.8-.3-.1.7-1.4.5-1.8.3zM470.5 87.8c.5-.4 1.6-.2 1.3.4.5-.1 1.1.5 1-.3.4.2 0 .6.4 1-.8.7-3 .5-2.7-1.1zM424.7 72.9c-.3-.2-.3-.8-.6-1-.4 0-.1.5-.6.4-.2-.2-.2-.4 0-.6-.4 0-.6.3-1 .3.3-.8 2.1-1.1 2.7-.3-.8 0-.3.6-.5 1.2zM494.6 63.5c-.4.1-.5-.1-.8-.1 0-.2 0-.4-.1-.4.1-.5.6-.1 1-.1-.1.2-.1.4-.1.6z"/></g></g></svg>